<svg width="58" height="51" fill="none" xmlns="http://www.w3.org/2000/svg"><g clip-path="url(#clip0_222_3832)" fill="#fff"><path d="M32.68 43.83h-.51V29.997l17.848-10.035.26.446-17.597 9.886V43.83z"/><path d="M26.782 40.498h-.511V26.675L44.118 16.64l.26.446-17.596 9.887v13.526z"/><path d="M20.882 37.177h-.51V23.353l17.847-10.035.26.446-17.597 9.877v13.536z"/><path d="M14.983 33.855h-.51V20.02L32.32 9.986l.26.446-17.597 9.887v13.536z"/><path d="M9.084 30.523h-.51V16.699L26.42 6.664l.26.446-17.597 9.887v13.526zM38.71 32.12v17.998l18.78-10.621V21.499l-18.78 10.62zm-.51 18.84V31.822L58 20.616v19.178l-.13.08L38.2 50.96z"/><path d="M38.7 32.12v17.998l18.77-10.63v-18L38.7 32.12zm-.52 18.84V31.822l19.81-11.206v19.169l-.13.079L38.18 50.96z"/><path d="M38.68 32.11v17.998l18.78-10.621V21.489l-18.78 10.62zm-.51 18.84V31.812l19.8-11.206v19.178l-.13.07L38.17 50.95z"/><path d="M38.67 32.1v17.998l18.77-10.62v-18L38.67 32.1zm-.52 18.84V31.802l19.81-11.206v19.179l-.13.069L38.15 50.94z"/><path d="M38.65 32.09v17.998l18.78-10.62V21.468l-18.78 10.62zm-.52 18.84V31.793l19.81-11.206v19.179l-.13.07L38.13 50.93z"/><path d="M38.64 32.08v17.998l18.77-10.62V21.458L38.64 32.08zm-.52 18.84V31.783l19.81-11.206v19.179l-.13.07L38.12 50.92z"/><path d="M38.62 32.07v17.998l18.77-10.62V21.448L38.62 32.07zm-.52 18.84V31.734l19.81-11.206v19.218l-.13.08L38.1 50.91z"/><path d="M38.6 32.06v17.998l18.779-10.62V21.439l-18.78 10.62zm-.51 18.84V31.734L57.9 20.527v19.208l-.13.08L38.09 50.9z"/><path d="M38.59 32.06v17.998l18.769-10.62V21.428l-18.77 10.63zm-.52 18.84V31.734l19.81-11.206v19.198l-.13.08L38.07 50.9z"/><path d="M38.57 32.05v17.998l18.779-10.62V21.429l-18.78 10.62zm-.51 18.841V31.733l19.8-11.206v19.198l-.13.07L38.06 50.89z"/><path d="M38.56 32.04v17.998l18.769-10.62V21.42l-18.77 10.62zm-.52 18.841V31.733l19.81-11.206v19.188l-.13.07L38.04 50.88z"/><path d="M38.54 32.03v17.998l18.779-10.62V21.41l-18.78 10.62zm-.51 18.841V31.732l19.8-11.205v19.139l-.13.069-19.67 11.136z"/><path d="M38.53 32.02v17.998l18.769-10.62V21.4l-18.77 10.62zm-.521 18.841V31.733l19.81-11.206v19.139l-.13.069-19.68 11.126z"/><path d="M38.51 32.01v17.998l18.779-10.62V21.39l-18.78 10.62zm-.511 18.841V31.733l19.8-11.206v19.139l-.13.079L38 50.85z"/><path d="M38.5 32v18.008l18.769-10.63V21.38L38.499 32zm-.521 18.841V31.733l19.81-11.236v19.169l-.13.079L37.98 50.84z"/><path d="M38.48 32v17.998l18.779-10.62V21.38L38.479 32zm-.511 18.841V31.733l19.8-11.206v19.139l-.13.079L37.97 50.84z"/><path d="M38.47 31.99V49.99l18.769-10.62v-18L38.469 31.99zm-.521 18.841V31.732l19.81-11.205v19.139l-.13.069-19.68 11.096z"/><path d="M38.45 31.98V49.98l18.779-10.62V21.36l-18.78 10.62zm-.511 18.842v-19.09l19.8-11.205v19.139l-.13.069-19.67 11.087z"/><path d="M38.44 31.97V49.97l18.769-10.62V21.35l-18.77 10.62zm-.521 18.842v-19.14l19.81-11.205v19.199l-.13.069-19.68 11.077z"/><path d="M38.42 31.96V49.96l18.779-10.62V21.34l-18.78 10.62zm-.521 18.842V31.663l19.81-11.206v19.209l-.13.079L37.9 50.802z"/><path d="M38.41 31.95V49.95l18.769-10.62V21.33l-18.77 10.62zm-.521 18.842V31.653l19.81-11.205v19.218l-.13.079-19.68 11.047z"/><path d="M38.39 31.95V49.95l18.769-10.63V21.32l-18.77 10.63zm-.521 18.842V31.653l19.81-11.215v19.228l-.13.079-19.68 11.047z"/><path d="M38.37 31.94V49.94l18.779-10.62V21.32l-18.78 10.62zm-.511 18.842V31.643l19.81-11.205v19.228l-.13.069-19.68 11.047z"/><path d="M38.36 31.93V49.93l18.729-10.62V21.31l-18.73 10.62zm-.521 18.842V31.633l19.81-11.205v19.178l-.13.07-19.68 11.096z"/><path d="M38.34 31.92v18l18.749-10.621V21.3l-18.75 10.62zm-.511 18.842V31.623l19.8-11.205v19.178l-.13.07-19.67 11.096z"/><path d="M38.33 31.911v17.998l18.759-10.62V21.29l-18.76 10.62zm-.521 18.841V31.613l19.81-11.205v19.178l-.13.08-19.68 11.086z"/><path d="M38.31 31.901V49.9l18.779-10.62V21.28L38.309 31.9zm-.511 18.841V31.604l19.8-11.206v19.178l-.13.08L37.8 50.742z"/><path d="M38.3 31.891V49.89l18.789-10.62V21.27l-18.79 10.62zm-.521 18.841V31.594l19.81-11.206v19.178l-.13.08-19.68 11.086z"/><path d="M38.28 31.891V49.89l18.809-10.63V21.261l-18.81 10.63zm-.511 18.841V31.594l19.8-11.206v19.168l-.13.08-19.67 11.096z"/><path d="M38.27 31.881V49.88l18.819-10.62V21.261l-18.82 10.62zm-.522 18.841V31.584L57.56 20.378v19.178l-.13.07-19.68 11.096z"/><path d="M38.25 31.871V49.87l18.779-10.62v-18l-18.78 10.621zm-.511 18.841V31.574l19.8-11.206v19.179l-.13.069-19.67 11.096z"/><path d="M38.24 31.861V49.86l18.768-10.62V21.24L38.24 31.861zm-.522 18.842v-19.14L57.53 20.359v19.179l-.13.07-19.68 11.096z"/><path d="M38.22 31.851V49.85l18.778-10.62v-18L38.22 31.852zm-.511 18.842v-19.14l19.8-11.205v19.179l-.13.07-19.67 11.096z"/><path d="M38.21 31.841V49.84l18.768-10.62V21.22L38.21 31.841zm-.522 18.842V31.544L57.5 20.338v19.179l-.13.08-19.68 11.086z"/><path d="M38.19 31.832V49.83l18.778-10.62V21.21L38.19 31.831zm-.521 18.84V31.545l19.81-11.215v19.178l-.13.08-19.68 11.086z"/><path d="M38.18 31.832V49.83l18.768-10.62V21.2L38.18 31.831zm-.522 18.84V31.535L57.47 20.33v19.168l-.13.08-19.68 11.096z"/><path d="M38.16 31.822V49.82L56.927 39.2V21.2L38.16 31.821zm-.522 18.84V31.525L57.45 20.32v19.178l-.13.07-19.68 11.096z"/><path d="M38.14 31.812V49.81l18.778-10.62V21.19L38.14 31.811zm-.512 18.84V31.515L57.44 20.31v19.178l-.13.07-19.68 11.096z"/><path d="M38.13 31.802V49.8l18.768-10.62V21.18L38.13 31.801zm-.522 18.841V31.504L57.42 20.3v19.178l-.13.07-19.68 11.096z"/><path d="M38.11 31.792V49.79l18.778-10.62V21.172L38.11 31.791zm-.512 18.841V31.494L57.4 20.29v19.178l-.13.07-19.67 11.096z"/><path d="M38.059 31.782V49.78l18.81-10.62V21.162l-18.81 10.62zm-.52 18.841V31.485l19.85-11.206v19.178l-.13.08-19.72 11.086z"/><path d="M38.059 31.732V49.78l18.8-10.63V21.152l-18.8 10.58zm-.51 18.842v-19.09l19.82-11.215v19.178l-.13.08-19.69 11.047z"/><path d="M38.059 31.732V49.77l18.78-10.62V21.152l-18.78 10.58zm-.52 18.842v-19.1l19.81-11.205v19.168l-.13.08-19.68 11.056z"/><path d="M38.059 31.732V49.76l18.77-10.62V21.142l-18.77 10.59zm-.51 18.842v-19.11l19.8-11.205v19.178l-.13.07-19.67 11.067z"/><path d="M38.059 31.732v18.019l18.75-10.62v-18l-18.75 10.601zm-.52 18.842v-19.12l19.81-11.205v19.179l-.13.069-19.68 11.077z"/><path d="M38.059 31.733V49.74l18.74-10.62v-18l-18.74 10.612zm-.51 18.84V31.446l19.8-11.206v19.179l-.13.07-19.67 11.086z"/><path d="M38.059 31.733V49.73l18.72-10.62V21.111l-18.72 10.62zm-.52 18.84V31.436l19.76-11.205v19.178l-.13.08-19.63 11.086z"/><path d="M37.989 31.732v17.989l18.78-10.62V21.101l-18.78 10.63zm-.51 18.842V31.425l19.8-11.206v19.179l-.13.08-19.67 11.096z"/><path d="M37.979 31.732v17.989l18.77-10.63V21.091l-18.77 10.64zm-.52 18.842V31.425l19.81-11.206v19.169l-.13.08-19.68 11.106z"/><path d="M37.959 31.732v17.979l18.78-10.62V21.091l-18.78 10.64zm-.51 18.842V31.415l19.8-11.205v19.178l-.13.07-19.67 11.116z"/><path d="M37.949 31.733V49.7l18.769-10.62V21.082l-18.77 10.65zm-.52 18.84V31.406L57.238 20.2v19.178l-.13.07-19.68 11.126z"/><path d="M37.929 31.733V49.69l18.779-10.62V21.072l-18.78 10.66zm-.52 18.84V31.396l19.81-11.205v19.178l-.13.07-19.68 11.136z"/><path d="M37.919 31.732v17.95L56.688 39.06V21.062l-18.77 10.67zm-.52 18.842V31.385l19.81-11.205v19.178l-.13.07-19.68 11.146z"/><path d="M37.899 31.673V49.67l18.769-10.62V21.052l-18.77 10.62zm-.52 18.841V31.375l19.81-11.205v19.178l-.13.08-19.68 11.086z"/><path d="M37.879 31.663v17.998l18.779-10.62V21.043l-18.78 10.62zm-.511 18.841V31.366l19.8-11.206v19.178l-.13.08-19.67 11.086z"/><path d="M37.869 31.663v17.998l18.769-10.62V21.033l-18.77 10.63zm-.521 18.841V31.366l19.81-11.206v19.168l-.13.08-19.68 11.096z"/><path d="M37.849 31.653v17.998l18.779-10.62V21.033l-18.78 10.62zm-.511 18.841V31.356l19.8-11.206v19.178l-.13.07-19.67 11.096z"/><path d="M37.839 31.643v17.998l18.769-10.62V21.023l-18.77 10.62zm-.521 18.841V31.346l19.77-11.206v19.178l-.13.07-19.64 11.096z"/><path d="M37.819 31.633v17.999l18.779-10.62v-18l-18.78 10.621zm-.511 18.841V31.336l19.78-11.206V39.31l-.13.069-19.65 11.096z"/><path d="M37.809 31.623v17.959l18.769-10.58v-18l-18.77 10.621zm-.521 18.841V31.326l19.8-11.206V39.3l-.13.07-19.67 11.096z"/><path d="M37.789 31.613v17.969l18.779-10.59V20.992l-18.78 10.62zm-.511 18.842V31.316l19.81-11.206V39.29l-.13.08-19.68 11.086z"/><path d="M37.779 31.604v17.978l18.769-10.6V20.982l-18.77 10.62zm-.521 18.84V31.317l19.83-11.215v19.178l-.13.08-19.7 11.086z"/><path d="M37.759 31.604v17.978l18.779-10.6V20.972l-18.78 10.63zm-.511 18.84V31.307l19.84-11.205v19.168l-.13.08-19.71 11.096z"/><path d="M37.749 31.594v17.988l18.769-10.61V20.972l-18.77 10.62zm-.521 18.84V31.297l19.86-11.205v19.178l-.13.07-19.73 11.096z"/><path d="M37.729 31.584v17.998l18.779-10.62V20.963l-18.78 10.62zm-.511 18.84V31.287l19.8-11.205v19.178l-.13.07-19.67 11.096z"/><path d="M37.719 31.574v18.008l18.769-10.63V20.953l-18.77 10.62zm-.521 18.841V31.276l19.81-11.205v19.178l-.13.07-19.68 11.096z"/><path d="M37.699 31.564v18.018l18.779-10.64V20.944l-18.78 10.62zm-.521 18.841V31.266l19.81-11.205v19.178l-.13.08-19.68 11.086z"/><path d="M37.688 31.554v18.028l18.77-10.65V20.933l-18.77 10.62zm-.52 18.841V31.256l19.81-11.205v19.178l-.13.08-19.68 11.086z"/><path d="M37.669 31.554v18.028l18.769-10.66V20.924l-18.77 10.63zm-.521 18.841V31.256l19.81-11.215v19.178l-.13.08-19.68 11.096z"/><path d="M37.648 31.544v18.038l18.78-10.66V20.924l-18.78 10.62zm-.51 18.841V31.247l19.81-11.206v19.178l-.13.07-19.68 11.096z"/><path d="M37.638 31.534v18.048l18.77-10.67V20.914l-18.77 10.62zm-.52 18.841V31.237l19.81-11.206V39.21l-.13.07-19.68 11.096z"/><path d="M37.618 31.524v17.998l18.78-10.62V20.904l-18.78 10.62zm-.51 18.841V31.227l19.8-11.206V39.2l-.13.07-19.67 11.096z"/><path d="M37.608 31.514v17.999l18.77-10.621V20.894l-18.77 10.62zm-.52 18.841V31.217l19.81-11.206V39.19l-.13.069-19.68 11.096z"/><path d="M37.588 31.504v17.999l18.78-10.62v-18l-18.78 10.621zm-.51 18.841V31.207L56.877 20V39.18l-.13.079-19.67 11.087z"/><path d="M37.578 31.494v17.999l18.77-10.62V20.873l-18.77 10.62zm-.52 18.881V31.197l19.81-11.206V39.17l-.13.08-19.68 11.125z"/><path d="M37.558 31.494v17.999l18.78-10.63V20.823l-18.78 10.67zm-.51 18.842V31.197l19.8-11.206V39.16l-.13.08-19.67 11.096z"/><path d="M37.548 31.485v17.998l18.77-10.62V20.824l-18.77 10.66zm-.52 18.84V31.188l19.81-11.205V39.16l-.13.07-19.68 11.096z"/><path d="M37.528 31.475v17.998l18.78-10.62V20.823l-18.78 10.65zm-.51 18.84V31.178l19.8-11.205V39.15l-.13.07-19.67 11.096z"/><path d="M37.518 31.465v17.998l18.77-10.62V20.824l-18.77 10.64zm-.52 18.84V31.168l19.81-11.205V39.14l-.13.07-19.68 11.096z"/><path d="M37.498 31.455v17.998l18.78-10.62V20.824l-18.78 10.63zm-.51 18.84V31.158l19.8-11.205V39.13l-.13.07-19.67 11.096z"/><path d="M37.488 31.445v17.998l18.77-10.62V20.825l-18.77 10.62zm-.52 18.841V31.147l19.81-11.205V39.12l-.13.08-19.68 11.086z"/><path d="M37.468 31.435v17.998l18.78-10.62V20.824l-18.78 10.61zm-.52 18.841V31.137l19.81-11.205V39.11l-.13.08-19.68 11.086z"/><path d="M37.458 31.435v17.998l18.77-10.62V20.824l-18.77 10.61zm-.52 18.841V31.137l19.81-11.205V39.1l-.13.08-19.68 11.096z"/><path d="M37.438 31.425v17.998l18.77-10.62V20.824l-18.77 10.601zm-.52 18.841V31.128l19.81-11.206V39.1l-.13.07-19.68 11.096z"/><path d="M37.418 31.415v17.998l18.78-10.62V20.824l-18.78 10.591zm-.51 18.841V31.118l19.81-11.206V39.09l-.13.07-19.68 11.096z"/><path d="M37.408 31.405v17.998l18.77-10.62V20.824l-18.77 10.581zm-.52 18.841V31.108l19.81-11.206V39.08l-.13.07-19.68 11.096z"/><path d="M37.388 31.395v17.999l18.78-10.62v-17.95l-18.78 10.571zm-.51 18.841V31.098l19.8-11.206v19.179l-.13.07-19.67 11.096z"/><path d="M37.378 31.385v17.999l18.77-10.62v-18l-18.77 10.621zm-.52 18.841V31.088l19.81-11.206v19.179l-.13.079-19.68 11.087z"/><path d="M37.358 31.375v18.009l18.78-10.63V20.754l-18.78 10.62zm-.51 18.842v-19.13l19.8-11.254V39.05l-.13.08-19.67 11.086z"/><path d="M37.348 31.375v17.999l18.739-10.62V20.754l-18.739 10.62zm-.52 18.842V31.078l19.81-11.245V39.04l-.13.08-19.68 11.096z"/><path d="M37.328 31.366v17.998l18.759-10.62V20.744l-18.76 10.62zm-.51 18.84V31.069l19.8-11.235V39.04l-.13.07-19.67 11.096z"/><path d="M37.318 31.356v17.998l18.769-10.62V20.734l-18.77 10.62zm-.52 18.84V31.059l19.81-11.225V39.03l-.13.07-19.68 11.096z"/><path d="M37.298 31.346v17.998l18.79-10.62V20.725l-18.79 10.62zm-.51 18.84V31.049l19.8-11.215V39.02l-.13.07-19.67 11.096z"/><path d="M37.288 31.336v17.998l18.8-10.66V20.715l-18.8 10.62zm-.52 18.84V31.039l19.81-11.205V39.01l-.13.08-19.68 11.086z"/><path d="M37.268 31.326v17.998l18.82-10.65V20.705l-18.82 10.62zm-.51 18.841V31.028l19.8-11.195V39l-.13.08-19.67 11.086z"/><path d="M37.258 31.326v17.998l18.769-10.65V20.695l-18.77 10.63zm-.52 18.841V31.028l19.81-11.195V38.99l-.13.08-19.68 11.096z"/><path d="M37.238 31.316v17.998l18.779-10.64V20.695l-18.78 10.62zm-.521 18.841V31.02l19.81-11.186V38.99l-.13.07-19.68 11.096z"/><path d="M37.228 31.306v17.998l18.769-10.63V20.686l-18.77 10.62zm-.521 18.841V31.01l19.81-11.176V38.98l-.13.07-19.68 11.096z"/><path d="M37.208 31.296v17.998l18.769-10.62V20.676l-18.77 10.62zm-.521 18.841V31l19.81-11.166V38.97l-.13.07-19.68 11.096z"/><path d="M37.188 31.286v17.998l18.779-10.61V20.666l-18.78 10.62zm-.511 18.841V30.99l19.81-11.156v19.129l-.13.069-19.68 11.096z"/><path d="M37.178 31.276v17.999l18.769-10.601V20.656l-18.77 10.62zm-.521 18.841V30.98l19.81-11.206v19.179l-.13.079-19.68 11.087z"/><path d="M37.158 31.266v17.999l18.779-10.591V20.646l-18.78 10.62zm-.511 18.842v-19.14l19.8-11.205v19.179l-.13.08-19.67 11.086z"/><path d="M56.898 38.109l-.19-14.875-.51-.288v-.842l-.762.406L20.682 2.568 2.334 13.05V27.3L38.61 47.916c-.23.07-.41.149-.41.238 0 .248 1.201.992 1.321.744.041-.333.014-.67-.08-.992l17.457-9.797zm-1.382-13.546l.15 11.572-5.238-2.975v-5.672l5.088-2.925zm-51.8 2.152V14.498l34.243 19.565.1 12.137L3.716 26.715zm34.754 4.77v1.497L4.347 13.476l16.525-9.42 33.312 19.069-15.714 8.36zm11.437 1.348l-4.386-2.519 4.386-2.548v5.067zm-10.746 1.13l5.158-2.974 5.008 2.875-10.136 5.802-.03-5.702zm.07 12.753v-6.465l10.646-6.089 5.69 3.272-16.336 9.282z"/><path d="M22.054 2.568V.684L1.382 12.504V29.63l2.474-1.458-.831-1.22V13.656l17.727-9.917h1.302v-1.17z"/><path d="M22.044 2.558V.674L1.362 12.494V29.62l2.474-1.457-.821-1.22V13.645l17.717-9.916h1.312v-1.17z"/><path d="M22.024 2.558V.664L1.352 12.484V29.61l2.474-1.457-.821-1.22V13.645l17.717-9.926h1.302v-1.16z"/><path d="M22.014 2.549V.664L1.332 12.484V29.61l2.484-1.457-.831-1.22V13.635L20.712 3.72h1.302v-1.17z"/><path d="M21.994 2.539V.655L1.322 12.475V29.6l2.474-1.457-.821-1.22V13.625L20.692 3.71h1.302v-1.17z"/><path d="M21.984 2.539V.645L1.312 12.465V29.59l2.474-1.457-.821-1.22V13.615L20.682 3.7h1.302v-1.16z"/><path d="M21.974 2.529V.645L1.292 12.465V29.59l2.484-1.467-.831-1.21V13.615L20.672 3.7h1.302v-1.17z"/><path d="M21.954 2.519V.635L1.282 12.455v17.126l2.474-1.458-.821-1.22V13.605L20.652 3.69h1.302v-1.17z"/><path d="M21.944 2.519V.625L1.272 12.445v17.126l2.474-1.458-.831-1.21V13.595L20.642 3.68h1.302v-1.16z"/><path d="M21.934 2.509V.625L1.252 12.435v17.136l2.484-1.468-.831-1.21V13.595L20.622 3.68h1.312v-1.17z"/><path d="M21.914 2.499V.615L1.242 12.435v17.126l2.474-1.458-.821-1.22V13.586l17.717-9.917h1.302V2.5z"/><path d="M21.904 2.499V.605L1.232 12.425v17.126l2.474-1.458-.832-1.22V13.585L20.602 3.66h1.302V2.5z"/><path d="M21.894 2.489V.605L1.212 12.425v17.126l2.484-1.468-.832-1.21V13.575L20.582 3.66h1.312V2.49z"/><path d="M21.874 2.48V.594L1.202 12.415v17.126l2.474-1.458-.822-1.22V13.566l17.718-9.917h1.302V2.48z"/><path d="M21.864 2.48V.584L1.192 12.405v17.126l2.474-1.458-.832-1.22V13.557l17.728-9.917h1.302V2.48z"/><path d="M21.854 2.47V.584L1.172 12.395v17.136l2.474-1.468-.822-1.21V13.557l17.718-9.917h1.312V2.47z"/><path d="M21.834 2.46V.574L1.162 12.395v17.126l2.474-1.458-.822-1.22V13.547l17.718-9.917h1.302V2.46z"/><path d="M21.824 2.45V.564L1.142 12.385v17.126l2.484-1.458-.832-1.22V13.537l17.728-9.917h1.302V2.45z"/><path d="M21.804 2.45V.554L1.132 12.375v17.136l2.474-1.467-.822-1.21V13.536l17.718-9.917h1.302V2.45z"/><path d="M21.794 2.44V.554L1.122 12.375v17.126l2.474-1.457-.822-1.22V13.526L20.492 3.61h1.302V2.44z"/><path d="M21.784 2.43V.545L1.102 12.365v17.126l2.484-1.457-.832-1.22V13.516L20.482 3.6h1.302V2.43z"/><path d="M21.764 2.43V.545L1.092 12.355v17.126l2.474-1.457-.822-1.21V13.516L20.462 3.59h1.302V2.43z"/><path d="M21.754 2.42V.536L1.082 12.356V29.48l2.473-1.467-.83-1.21V13.506L20.451 3.59h1.302V2.42z"/><path d="M21.744 2.41V.526L1.062 12.346V29.47l2.484-1.457-.832-1.22V13.496L20.432 3.58h1.312V2.41z"/><path d="M21.724 2.41V.516L1.052 12.336v17.126l2.473-1.458-.82-1.21V13.496L20.421 3.57h1.302V2.41z"/><path d="M21.714 2.4V.516L1.032 12.336v17.126l2.483-1.468-.83-1.21V13.486L20.411 3.57h1.302V2.4z"/><path d="M21.694 2.39V.506L1.022 12.326v17.126l2.483-1.458-.83-1.22V13.476L20.391 3.56h1.302V2.39z"/><path d="M21.684 2.39V.496L1.012 12.316v17.126l2.473-1.458-.82-1.21V13.476L20.381 3.55h1.302V2.39z"/><path d="M21.674 2.38V.496L.992 12.316v17.126l2.483-1.468-.83-1.21V13.467L20.371 3.55h1.302V2.38z"/><path d="M21.654 2.37V.486L.982 12.306v17.126l2.473-1.458-.82-1.22V13.457L20.351 3.54h1.302V2.37z"/><path d="M21.644 2.37V.476L.972 12.296v17.126l2.473-1.458-.82-1.21V13.447L20.341 3.53h1.302V2.37z"/><path d="M21.634 2.36V.476L.95 12.286v17.136l2.484-1.468-.831-1.21V13.447L20.331 3.53h1.303V2.36z"/><path d="M21.613 2.35V.466L.941 12.286v17.126l2.474-1.458-.821-1.22V13.438L20.312 3.52h1.301V2.35z"/><path d="M21.604 2.35V.456L.93 12.276v17.126l2.474-1.458-.831-1.22V13.428L20.3 3.51h1.303V2.35z"/><path d="M21.593 2.34V.456L.912 12.276v17.126l2.484-1.468-.831-1.21V13.428L20.28 3.51h1.313V2.34z"/><path d="M21.573 2.33V.446L.901 12.266v17.126l2.474-1.457-.821-1.22V13.417L20.27 3.5h1.302V2.33z"/><path d="M21.563 2.33V.436L.891 12.256v17.126l2.474-1.458-.831-1.22V13.408L20.26 3.49h1.302V2.33z"/><path d="M21.553 2.32V.436L.871 12.256v17.126l2.484-1.467-.831-1.21V13.407L20.24 3.49h1.312V2.32z"/><path d="M21.533 2.31V.427L.861 12.246v17.126l2.474-1.457-.821-1.22V13.397L20.23 3.481h1.302V2.31z"/><path d="M21.523 2.31V.418L.841 12.237v17.125l2.484-1.457-.831-1.22V13.387L20.22 3.471h1.302V2.31z"/><path d="M21.513 2.3V.408L.831 12.227v17.136l2.474-1.468-.821-1.21V13.387L20.2 3.471h1.312V2.3z"/><path d="M21.493 2.29V.408L.821 12.227v17.126l2.474-1.458-.831-1.22V13.377L20.19 3.461h1.302V2.29z"/><path d="M21.483 2.28V.398L.801 12.217v17.126l2.484-1.458-.831-1.22V13.367L20.17 3.451h1.312V2.28z"/><path d="M21.463 2.28V.398L.791 12.207v17.136l2.474-1.468-.821-1.21V13.367L20.16 3.451h1.302V2.28z"/><path d="M21.453 2.27V.388L.781 12.207v17.126l2.474-1.458-.831-1.22V13.357L20.15 3.441h1.302v-1.17z"/><path d="M21.443 2.261V.377L.761 12.197v17.126l2.484-1.458-.831-1.22V13.348L20.13 3.43h1.312v-1.17z"/><path d="M21.423 2.261V.377L.751 12.187v17.136l2.474-1.468-.821-1.21V13.348L20.12 3.42h1.302v-1.16z"/><path d="M21.413 2.251V.367L.741 12.187v17.126l2.474-1.458-.831-1.22V13.338L20.11 3.42h1.302v-1.17z"/><path d="M21.403 2.241V.357L.721 12.177v17.126l2.474-1.458-.821-1.22V13.328L20.09 3.41h1.312v-1.17z"/><path d="M21.383 2.241V.347L.711 12.167v17.136l2.474-1.468-.821-1.22V13.329L20.08 3.4h1.302v-1.16z"/><path d="M21.373 2.231V.347L.691 12.167v17.126l2.484-1.468-.831-1.21V13.319L20.07 3.4h1.302v-1.17z"/><path d="M21.353 2.221V.337L.681 12.157v17.126l2.474-1.458-.821-1.22V13.309L20.05 3.39h1.302v-1.17z"/><path d="M21.343 2.221V.327L.671 12.147v17.126l2.474-1.457-.831-1.22V13.298L20.04 3.382h1.302v-1.16z"/><path d="M21.333 2.211V.327L.651 12.147v17.126l2.484-1.467-.831-1.21V13.298L20.03 3.382h1.302v-1.17z"/><path d="M21.313 2.201V.317L.641 12.137v17.126l2.474-1.457-.821-1.22V13.288L20.01 3.372h1.302v-1.17z"/><path d="M21.303 2.201V.307L.631 12.127v17.126l2.474-1.457-.831-1.22V13.278L20 3.362h1.302v-1.16z"/><path d="M21.293 2.191V.307L.611 12.117v17.136l2.484-1.467-.831-1.21V13.278L19.98 3.362h1.312v-1.17z"/><path d="M21.273 2.182V.297L.601 12.117v17.126l2.474-1.457-.821-1.22V13.268L19.97 3.352h1.302v-1.17z"/><path d="M21.263 2.172V.288L.591 12.108v17.125l2.474-1.457-.832-1.22V13.258l17.728-9.916h1.302v-1.17z"/><path d="M21.253 2.172V.288L.571 12.108v17.125l2.474-1.467-.822-1.21V13.258l17.718-9.916h1.312v-1.17z"/><path d="M21.233 2.162V.278L.561 12.098v17.126l2.474-1.458-.822-1.22V13.248l17.718-9.916h1.302v-1.17z"/><path d="M21.223 2.152V.268L.551 12.088v17.126l2.474-1.458-.832-1.22V13.238l17.728-9.916h1.302v-1.17z"/><path d="M21.213 2.152V.268L.531 12.078v17.136l2.474-1.468-.822-1.21V13.238l17.718-9.916h1.312v-1.17z"/><path d="M21.193 2.142V.258L.52 12.078v17.126l2.474-1.458-.822-1.22V13.23l17.718-9.917h1.302v-1.17z"/><path d="M21.183 2.132V.248L.5 12.068v17.126l2.484-1.458-.832-1.22V13.22l17.728-9.917h1.302v-1.17z"/><path d="M21.163 2.132V.238L.49 12.058v17.136l2.474-1.468-.822-1.21V13.22l17.718-9.917h1.302v-1.17z"/><path d="M21.153 2.122V.238L.48 12.058v17.126l2.474-1.468-.832-1.21V13.21l17.728-9.917h1.302v-1.17z"/><path d="M21.143 2.112V.228L.46 12.048v17.126l2.484-1.458-.832-1.22V13.2l17.718-9.917h1.312v-1.17z"/><path d="M21.123 2.112V.228L.45 12.038v17.126l2.474-1.458-.822-1.21V13.2l17.718-9.927h1.302v-1.16z"/><path d="M21.113 2.102V.218L.44 12.038v17.126l2.474-1.468-.832-1.21V13.19l17.728-9.917h1.302v-1.17z"/><path d="M21.103 2.092V.208L.42 12.028v17.126l2.484-1.457-.832-1.22V13.179l17.718-9.916h1.312v-1.17z"/><path d="M21.083 2.092V.198L.41 12.018v17.126l2.473-1.457-.82-1.21V13.179L19.78 3.253h1.302v-1.16z"/><path d="M21.073 2.082V.198L.4 12.018v17.126l2.473-1.467-.83-1.21V13.169L19.77 3.253h1.302v-1.17z"/><path d="M21.053 2.072V.188L.38 12.008v17.126l2.473-1.457-.82-1.22V13.159L19.75 3.243h1.302v-1.17z"/><path d="M21.043 2.072V.178L.37 11.998v17.126l2.473-1.457-.82-1.21V13.159L19.74 3.233h1.302v-1.16z"/><path d="M21.033 2.063V.178L.35 11.998v17.126l2.483-1.467-.83-1.21V13.149L19.73 3.233h1.302v-1.17z"/><path d="M21.013 2.053V.169L.34 11.989v17.125l2.473-1.457-.82-1.22V13.14L19.71 3.223h1.302v-1.17z"/><path d="M21.003 2.053V.159L.33 11.979v17.126l2.473-1.458-.82-1.21V13.13L19.7 3.213h1.302v-1.16z"/><path d="M20.992 2.043V.159L.31 11.969v17.136l2.484-1.468-.831-1.21V13.13L19.69 3.213h1.302v-1.17z"/><path d="M20.973 2.033V.149L.3 11.969v17.126l2.474-1.458-.821-1.22V13.12l17.718-9.916h1.302v-1.17z"/><path d="M20.962 2.023V.139L.29 11.959v17.126l2.474-1.458-.831-1.22V13.11L19.66 3.193h1.302v-1.17z"/><path d="M20.953 2.023V.139L.27 11.949v17.136l2.484-1.468-.831-1.21V13.11L19.64 3.193h1.313v-1.17z"/><path d="M20.933 2.013V.129L.26 11.949v17.126l2.474-1.458-.821-1.22V13.1L19.63 3.183h1.303v-1.17z"/><path d="M20.922 2.003V.12L.24 11.939v17.126l2.484-1.458-.831-1.22V13.09L19.62 3.173h1.302v-1.17z"/><path d="M20.912 2.003V.12L.23 11.929v17.136l2.474-1.468-.821-1.21V13.09L19.6 3.163h1.312v-1.16z"/><path d="M20.892 1.993V.11L.22 11.93v17.126l2.474-1.458-.821-1.22V13.08L19.59 3.163h1.302v-1.17z"/><path d="M20.882 1.983V.1L.2 11.92v17.126l2.484-1.458-.831-1.22V13.07L19.58 3.153h1.302v-1.17z"/><path d="M20.862 1.983V.1L.19 11.91v17.136l2.474-1.468-.821-1.21V13.07L19.56 3.143h1.302v-1.16z"/><path d="M20.852 1.973V.09L.18 11.91v17.126l2.474-1.457-.831-1.22V13.06L19.55 3.143h1.302v-1.17z"/><path d="M20.842 1.963V.08L.16 11.9v17.126l2.484-1.457-.831-1.22V13.05L19.53 3.134h1.312v-1.17z"/><path d="M20.822 1.963V.07L.15 11.89v17.136l2.474-1.467-.821-1.21V13.05L19.52 3.124h1.302v-1.16z"/><path d="M20.812 1.954V.069L.14 11.89v17.126l2.474-1.457-.831-1.22V13.04L19.51 3.124h1.302v-1.17z"/><path d="M20.802 1.944V.059L.12 11.88v17.126l2.484-1.457-.831-1.22V13.03L19.49 3.114h1.312v-1.17z"/><path d="M20.782 1.944V.05L.11 11.87v17.135l2.474-1.467-.821-1.21V13.03L19.48 3.104h1.302v-1.16z"/><path d="M20.772 1.934V.05L.1 11.87v17.125l2.474-1.457-.831-1.22V13.02L19.47 3.104h1.302v-1.17z"/><path d="M20.762 1.924V.04L.08 11.86v17.126l2.484-1.458-.831-1.22V13.01L19.45 3.094h1.312v-1.17z"/><path d="M20.742 1.924V.03L.07 11.85v17.136l2.474-1.468-.821-1.22V13.01L19.44 3.084h1.302v-1.16z"/><path d="M20.732 1.914V.03L.05 11.85v17.126l2.484-1.468-.831-1.21V13L19.43 3.084h1.302v-1.17z"/><path d="M20.712 1.904V.02L.04 11.84v17.126l2.474-1.458-.821-1.22V12.991L19.41 3.074h1.302v-1.17z"/><path d="M20.702 1.904V.01L.03 11.83v17.126l2.474-1.458-.821-1.22V12.992L19.4 3.064h1.302v-1.16z"/><path d="M20.692 1.894V.01L.01 11.83v17.126l2.484-1.468-.831-1.21V12.982L19.39 3.064h1.302v-1.17z"/><path d="M20.672 1.884V0L0 11.82v17.126l2.474-1.458-.821-1.22V12.971L19.37 3.054h1.302v-1.17z"/></g><defs><clipPath id="clip0_222_3832"><path fill="#fff" d="M0 0h58v51H0z"/></clipPath></defs></svg>