<svg width="219" height="479" fill="none" xmlns="http://www.w3.org/2000/svg"><path d="M188.731 2.81c-31.051 7.948-56.519 29.393-78.754 52.247-21.546 22.188-41.916 47.905-46.224 78.745-2.003 14.293-.51 29.418-5.828 42.804-7.365 18.487-25.956 29.49-38.178 45.057-22.883 29.045-21.37 70.386-15.313 107.398 2.925 18.761 6.997 37.822 16.22 54.566 10.63 19.325 27.374 34.531 44.677 48.274 16.306 12.998 33.594 25.126 52.723 33.347 46.723 20.063 100.437 15.14 147.904-.877 33.069-11.245 65.142-28.266 86.689-55.487 9.031-11.449 16.229-25.39 15.207-40.11-1.359-19.359-16.456-35.665-19.672-54.904-3.128-18.935 5.723-37.517 16.315-53.228 10.593-15.711 23.396-30.32 29.69-48.242 8.29-23.64 3.964-50.698-7.752-73.247-11.715-22.548-30.424-41.046-50.904-56.263-14.561-10.811-30.207-20.497-43.308-33.14-8.959-8.623-14.891-19.675-23.771-28.116C247.613 1.533 215.704-4.07 188.731 2.81z" fill="#C7E5FF"/></svg>