<svg width="348" height="479" fill="none" xmlns="http://www.w3.org/2000/svg"><g clip-path="url(#clip0_422_2966)"><path d="M24.73 1.81C-6.32 9.758-31.788 31.203-54.023 54.057c-21.546 22.188-41.916 47.905-46.224 78.745-2.003 14.293-.511 29.418-5.828 42.804-7.365 18.487-25.956 29.49-38.178 45.057-22.883 29.045-21.37 70.386-15.313 107.398 2.925 18.761 6.997 37.822 16.221 54.566 10.628 19.325 27.373 34.531 44.676 48.274 16.306 12.998 33.594 25.126 52.723 33.347 46.723 20.063 100.437 15.14 147.904-.877 33.069-11.245 65.142-28.266 86.689-55.487 9.031-11.449 16.229-25.39 15.207-40.11-1.359-19.359-16.456-35.665-19.672-54.904-3.128-18.935 5.723-37.517 16.315-53.228 10.593-15.711 23.396-30.32 29.69-48.242 8.29-23.64 3.964-50.698-7.752-73.247-11.715-22.548-30.424-41.046-50.904-56.263-14.561-10.811-30.207-20.497-43.308-33.14-8.959-8.623-14.891-19.675-23.771-28.116C83.613.533 51.704-5.07 24.731 1.81z" fill="#C7E5FF"/><path d="M273.614 131.516c-23.361-16.609-50.761-28.053-79.293-30.28-28.533-2.226-58.208 5.223-80.77 22.881-4.462 3.478-8.658 7.358-13.299 10.618-4.58 3.232-9.575 5.906-14.33 8.768-32.575 19.62-58.02 54.574-57.357 92.529.326 18.489 6.583 36.275 11.345 54.092 4.622 17.204 7.98 35.084 16.846 50.574 9.866 17.28 25.858 30.293 43.005 40.492 17.99 10.705 38.382 18.835 59.319 18.101 25.546-.884 48.887-14.836 74.134-19.051 11.262-1.875 22.759-1.825 33.936-4.038 11.178-2.213 22.501-7.137 29.005-16.491 3.896-5.624 5.741-12.388 7.188-19.038 4.304-19.706 5.662-40.052 10.787-59.62 4.925-18.718 13.255-36.94 13.129-56.279-.133-20.468-10.471-35.561-19.88-52.832-9.093-16.288-18.252-29.376-33.765-40.426z" fill="#D8EDFF"/></g><defs><clipPath id="clip0_422_2966"><path fill="#fff" d="M0 0h348v479H0z"/></clipPath></defs></svg>