<svg width="500" height="500" fill="none" xmlns="http://www.w3.org/2000/svg"><path d="M82.6 394.2c-17-7.8-38.1-20.7-48-68.7-9.9-48 33.1-91.9 37.2-115.9 4.1-24-5-53.8 33.1-77 38.1-23.2 105.9-14.9 131.6-20.7 25.7-5.8 55.4-45.5 106.8-36.4 51.3 9.1 101 36.4 103.4 96 2.5 59.6-16.6 61.2 2.5 93.5 19 32.3 26.5 54.6 17.4 87.7-9.1 33.1-35 33.6-59.1 48.9-28.4 18.1-68.8 35.4-140.9 41-38.3 3-86.1-23.3-95-27.8-20.1-10.1-72-12.8-89-20.6z" fill="#DDECFF"/><path d="M162.1 383.4c-18-15.4-37.1-72 1.6-135.7 38.7-63.7 135.8-56.3 174.5-31.4 38.7 24.9 57.6 57.1 61.6 91 3.9 33.9-3.3 67.5-22.1 86.9-18.8 19.4-61.2 27-110.9 27s-86.7-22.4-104.7-37.8z" fill="#BADAF7"/><path d="M434.5 266.4h-44.6c-2.8 0-5-2.2-5-5v-22.3c0-2.8 2.2-5 5-5h44.6c2.8 0 5 2.2 5 5v22.3c0 2.8-2.3 5-5 5z" fill="#219BDA"/><path d="M412.2 279l7-16.7h-14.1l7.1 16.7z" fill="#219BDA"/><path d="M412 244.7h12.8v1.9l6.2-3.6-6.2-3.6v1.8H412v3.5z" fill="#223A7A"/><path d="M431 252.1h-12.8v-1.9l-6.2 3.6 6.2 3.6v-1.9H431v-3.4z" fill="#fff"/><path d="M404.1 255.4l-.6.2s-1.9-2.2-2.9-4.5c-1-2.4-1-5.2-1-5.2l.4-.2-2.7-6.5c-.5.4-.9.9-1.3 1.5-1.5 2.6-1.4 6.5.2 10.4 1.5 3.9 3.2 7.3 6.2 9.5 1.8 1.3 3.3 1.5 4.5 1.3l-2.8-6.5zM406.1 254.6l-.8.3 2.8 6.6c.3-.1.6-.2.8-.4.7-.4 1-1.2.7-2l-1.4-3.6c-.4-.8-1.3-1.2-2.1-.9zM399.5 238c-.3.1-.7.3-1.1.5l2.8 6.6.9-.4c.8-.3 1.2-1.3.9-2.1l-1.5-3.7c-.3-.7-1.2-1.2-2-.9z" fill="#223A7A"/><path d="M227.9 199.5s-2.7 22.6-3.7 24.4l-1 1.9-5.2 3.5s9.9 14.1 22.1 16.3c12.2 2.3 11.2-5 11.2-5l-1.9-3.9 2.5-21.5s-22.2-10.1-24-15.7z" fill="#FFBAAE"/><path d="M211.5 231.2l8.1-3.5s5.2 8.5 17.2 13.4 12.2 2.1 12.8 0c.6-2.1-.2-4.3-.2-4.3l.9-7.2 4.8 1.6 16.7 134.7L229 368l-17.5-136.8z" fill="#fff"/><path d="M251 229.6s2.9 6.7 5.6 22.4c2.7 15.7 5.2 42.2 5.8 60.4.6 18.2 1 59.8 1 59.8h54c.6 0 4.3-20.5 4.3-20.5s-23.6-20.2-24.8-23.5c-.8-2.2-.4-43.1-3.9-61.9-3.5-18.8-8.1-22.6-17.6-27.3-9.8-4.8-24.4-9.4-24.4-9.4z" fill="#223A7A"/><path d="M279.2 348.6c-.3 0-.5-.2-.5-.5 0-1.5-.3-22.5-.5-42.8-.3-20.3-.5-41.3-.5-42.8 0-.3.2-.5.5-.5s.5.2.5.5c0 1.5.3 22.5.5 42.8.3 20.3.5 41.3.5 42.8 0 .2-.2.5-.5.5z" fill="#8593B6"/><path d="M171.6 343.5l-.4 28.8h62.9s2.7-24.4 1.7-26.7c-1.1-2.3-64.2-2.1-64.2-2.1z" fill="#223A7A"/><path d="M241.6 223.3c2.6 2.1 6.1 3.7 8.8 4.7l1.5-12.8s-16.6-7.6-22.3-13.3c1.2 6.5 4.1 15 12 21.4z" fill="#5778CA"/><path d="M271.3 157.5s4.3 7.4 5.2 16.6c.8 9.1 0 32.5-7.4 42.4-7.4 9.9-23 7-30 1-6.5-5.5-12.8-11.6-14.5-23.6-1.7-12 3.5-34.8 18.2-39.5 14.7-4.8 28.5 3.1 28.5 3.1z" fill="#FFBAAE"/><path d="M290 359.3h-2.7c-1.1 0-2.4-.1-3.7-.1h-.9c-1.3 0-2.4.1-3.5.1h-1.1c-.6-.1-.7-.2-1.4-.5-.8-.4-12.2-2.9-21.5-2.9-9.2 0-17.5.7-18.9-.5-1.4-1.1-2.2-12.8 5.7-13.5l9.7 3.7s22.1-2.6 30.3 3.4c8.2 5.8 8 10.3 8 10.3z" fill="#FF9D8C"/><path d="M279.3 359.2h-.8c-.2-.3-.6-.9-.9-1.1-2.5-2.5-8.5-4.2-10.7-4.7-.2-.1-.3-.2-.3-.4s.2-.3.5-.3c3.2.8 10 2.7 11.9 6 0-.1.2.3.3.5zM283.6 359.1h-.9c-2.7-5-7.2-6.4-12.7-8.2l-.3-.1c-.2-.1-.3-.3-.2-.5.1-.2.3-.3.5-.2l.3.1c5.8 1.9 10.5 3.4 13.3 8.9zM288.2 359.2h-.8c-1.7-3.5-7.1-9.3-14.4-10.7-.2 0-.3-.2-.3-.4s.2-.3.4-.3c7.4 1.4 13.4 7.5 15.1 11.4z" fill="#223A7A"/><path d="M229.5 183.7s4.6-2.2 7.8-8.3c3.2-6.1 2.8-11.6 2.8-11.6s5.8-.9 14.5 1.7 19 6.1 27.7 1.1 8.7-12.9 4.4-16.2c-4.8-3.7-14.2-1.4-14.2-1.4s3.6-3.5 1.7-5.6c-2-2.1-9.1.6-9.1.6s-8.7-6.9-25.1-6.1c-16.4.8-24.3 12.3-25.2 25.1-.9 12.8 3.7 25.7 3.7 25.7l11-5z" fill="#3B2CAC"/><path d="M262.9 186.8c-.9 2.3-.9 5-1.1 7.4-.2 1.9-.5 4.1 1.2 5.4.8.6 4.8 2.3 2.7 3.6-.8.5-2.1.4-2.9.3-.6 0-1.2-.1-1.8-.1-.6 0-1.3-.2-1.9-.2-.4 0-.5.5-.2.7 1 .7 2.6.9 3.8.9 1.2 0 2 0 3.1-.6.7-.3 1.3-.8 1.4-1.6.1-.9-.6-1.7-1.2-2.2-.8-.6-1.7-.9-2.5-1.4-1.1-.8-1-2.1-.9-3.3.2-2.9.9-5.8 1.1-8.8 0-.5-.7-.5-.8-.1z" fill="#8E9BBB"/><path d="M271.4 193.7c-.3 1.7-1.6 3-2.8 2.8-1.3-.2-2-1.8-1.7-3.6.3-1.7 1.6-3 2.8-2.8 1.2.2 2 1.8 1.7 3.6zM255.5 192.3c-.3 1.9-1.6 3.2-3 3-1.4-.2-2.2-1.9-1.9-3.8.3-1.9 1.6-3.2 3-3 1.4.2 2.2 1.9 1.9 3.8zM267.7 186.5c1 .2 1.9 0 2.9.1.2 0 .5.1.7.1h-.1.1c.1 0 .2 0 .4.1s.4.1.6.2c.2 0 .4.1.6.1h.3-.2.4c.6-.1.9-.8.7-1.3 0-.2-.1-.3-.2-.4 0-.1-.1-.1-.1-.2l.1.1c0-.1-.1-.1-.1-.2-.1-.1-.1-.2-.2-.2-.1-.1-.2-.1-.2-.2-.3-.2-.6-.3-.9-.4-.6-.1-1.2-.2-1.8-.2-.6 0-1.2.1-1.8.1-.5.1-1.1.2-1.5.6-.3.2-.5.6-.5 1 .1.2.4.6.8.7zM256.6 183.7c-.1-.1-.3-.1-.4-.2-.1-.1-.4-.2-.2-.1-.1 0-.2-.1-.3-.1-.4-.2-.8-.3-1.2-.4-.9-.2-1.9-.3-2.9-.2-1 .1-2 .4-2.9.9-.1.1-.3.2-.4.3-.1.1-.1.2-.2.3 0 0 0-.1.1-.1-.3.2-.4.5-.4.8 0 .3.2.6.4.7.3.2.7.1 1 0h-.5c.3 0 .5.1.8 0 0 0 .3-.1.1 0h.3c.1 0 .4 0 0 0h.2c.2 0 .3 0 .5-.1.7-.1 1.4-.1 2-.1h2.7c.2 0 .1 0 0 0h.2c.1 0 .2.1.3.1.4.2 1-.2 1.1-.6.3-.4.2-.9-.3-1.2z" fill="#223A7A"/><path d="M223.7 201.4s.8 3.2 5.6 6.9 11.7 6.4 11.7 6.4l.6-2.4s-7.1-3.1-10.4-6.5c-3.3-3.4-3.7-5.3-3.7-5.3l-3.8.9z" fill="#DEE1EB"/><path d="M242.4 210.5c3.8-.2 6 2.8 6.2 4.8.3 2-1.6 4.2-5.9 2.2-5.3-2.3-4.2-6.8-.3-7z" fill="#3B2CAC"/><path d="M226.7 177.7s1.7-11.9 9.6-20c15.2-15.4 28.1-14.5 28.1-14.5s-.1-2.2-5-3.8c-4.6-1.6-6.6-.7-6.6-.7s-12.5 1-23.1 12.7C219.1 163.1 218 178 218 178l8.7-.3z" fill="#DEE1EB"/><path d="M225.6 176.2c-10-1.7-15.5 6.1-15.9 14-.4 7.9 5.3 13.8 12.9 13.2 17.2-1.3 15.2-25.1 3-27.2z" fill="#fff"/><path d="M220.6 195.8c-2.6 0-4.9-1.3-6.1-3.6-1.4-2.5-1.2-5.6.3-7.8.1-.2.3-.2.5-.1s.2.4.1.5c-1.4 2-1.5 4.8-.3 7 1.2 2.1 3.2 3.3 5.7 3.3 2.3-.1 4.2-1.1 5.4-2.9 1.4-2.1 1.7-5 .8-7.3-.9-2.4-3.3-4-5.6-3.7-.2 0-.4-.1-.4-.3 0-.2.1-.4.3-.4 2.6-.3 5.4 1.4 6.4 4.1 1 2.6.6 5.7-.9 8-1.4 2-3.5 3.2-6 3.3 0-.1-.1-.1-.2-.1z" fill="#818FB3"/><path d="M213.4 228.3s-30.2 7.4-40.8 19.4c-10.6 12-15.5 71.2-15.7 82.1-.2 11 7.4 15.5 12 18.6 4.6 3.1 24.6 8.7 40.8 9.5 16.2.8 31.4 0 31.4 0s-.1-3.5 2.4-8.7c2.3-4.8 5.2-5.8 5.2-5.8l-13.9-5s-2.4-43.5-6.2-64.6c-4.2-24-15.2-45.5-15.2-45.5z" fill="#223A7A"/><path d="M263.5 331.6h-.2c-.3-.1-.4-.4-.3-.7 2.8-6.4 5.8-18.9 7.4-27.7l.1-.7c.5-2.6 1.1-5.8-.1-8-.6-1.1-2.1-3.6-3.4-6-1.4-2.5-2.8-4.8-3.1-5.5-.7-1.4 1.6-5 4.9-9.9.9-1.3 1.7-2.5 2.1-3.3 1.2-2 .4-3.9-.5-6.1l-.4-.7c-.8-2-1.8-4.1-2.7-6-.4-.8-.7-1.6-1.1-2.4l-1.5-3.3c-2.9-6.5-5.9-13.3-9.8-19.8-.1-.2-.1-.5.2-.7.2-.1.5-.1.7.2 3.9 6.6 6.9 13.3 9.9 19.9l1.5 3.3c.4.8.7 1.6 1.1 2.4.9 2 1.9 4 2.7 6.1l.3.7c.9 2.2 1.9 4.5.5 7-.5.8-1.3 2-2.2 3.3-1.7 2.6-5.3 8-4.8 8.9.4.7 1.7 3 3.1 5.4 1.4 2.4 2.8 4.8 3.4 6 1.4 2.5.8 6 .2 8.7l-.1.7c-.6 3.2-3.8 19.6-7.5 27.9-.1.2-.2.3-.4.3zM234 333.3c-.1 0-.3 0-.4-.1-2.4-2.4-13.7-22-14.5-25.7-.5-2 .7-7.1 1.8-12.1.9-3.8 1.8-7.8 1.5-8.9-.4-1.6-3.3-4-6.1-6.3-3.4-2.8-6.9-5.6-7.6-8.2-.8-2.9-.1-21.3.3-33.4.2-4.4.3-7.8.3-9 0-.3.2-.5.5-.5s.5.2.5.5c0 1.2-.1 4.7-.3 9.1-.4 11.3-1.1 30.3-.4 33.1.6 2.3 4.1 5.1 7.2 7.7 3.1 2.5 6 4.9 6.4 6.8.3 1.3-.5 5-1.5 9.3-1 4.6-2.2 9.9-1.8 11.7.8 3.6 12 22.9 14.3 25.2.2.2.2.5 0 .7 0 .1-.1.1-.2.1zM193.3 324.8c-.3 0-.5-.3-.5-.6.4-2.6 6.1-54.4 6.4-58.4 0-.3.3-.5.5-.5.3 0 .5.3.5.5-.3 4-6 55.8-6.4 58.4 0 .4-.2.6-.5.6z" fill="#8593B6"/><path d="M234.5 338.8h-.2c-1.3-.5-6.9-2.4-14-4.8-14.4-4.8-34-11.5-37.8-13.4-.2-.1-.3-.4-.2-.7.1-.2.4-.3.7-.2 3.7 1.9 24.1 8.8 37.6 13.4 7.1 2.4 12.8 4.3 14.1 4.8.3.1.4.4.3.7-.1.1-.3.2-.5.2zM227.6 359.5c-12.6 0-37.1-2.3-55.7-8.9-.3-.1-.4-.4-.3-.6.1-.3.4-.4.6-.3 23.5 8.3 56.4 9.7 62.5 8.4.3-.1.5.1.6.4.1.3-.1.5-.4.6-1.3.2-3.9.4-7.3.4z" fill="#8593B6"/><path d="M264.1 209.6c-.1.8-.5 1.9-.8 2.3-.3.4-.7 1.2-1.6 1.7-1 .7-2.6.2-3.6-.2-1.8-.8-3.4-1.8-5.1-3-.7-.5-3.9-4.1-2.7-3.7 1.4.5 5.6 1.6 6.6 1.8 1.9.4 4.6.8 7.2 1.1z" fill="#fff"/><path d="M220.7 280l-15.1-1c-1.5-.1-2.7-1.4-2.6-2.9l.4-7.8c.1-1.6 1.4-2.8 3-2.7l14.8 1c1.5.1 2.6 1.3 2.6 2.8v7.8c-.1 1.6-1.4 2.9-3.1 2.8z" fill="#FCFCFC"/><path d="M216.7 268.2l-4.9-.4c-.4 0-.7-.3-.7-.7v-1.2l6.3.4v1.2c0 .4-.3.7-.7.7z" fill="#BAC8D1"/><path d="M205.9 270.5l15.4 1.1M205.9 273l10.4.8" stroke="#BFCCDB" stroke-miterlimit="10" stroke-linecap="round"/><path d="M83 235.2c3.9 3.5 8.9 5.7 12.3 9.7 1.4 1.6 2.6 3.2 3.8 4.9.9 1.2 3.4 3.2 3.8 4.7.2.7.1-.2 0-.9v-.1c-.3-3-.6-6.1-.7-9.2-.1-3.1.1-6.1-.1-9.2-.3-4.3-1.6-8.5-5.1-11.2-1.7-1.3-3.9-2.1-5.5-3.6-1.5-1.4-.9-3 0-4.5.8-1.5 1.8-2.9 2.2-4.5.4-1.9-.3-3.9-1.3-5.5-2-3.4-6.6-7.3-10.9-6.8-3.6.4-4 4.6-3.9 7.5 0 2.8.3 5.6.4 8.4 0 2.9-.5 5.7-.5 8.6-.4 4.9 1.9 8.6 5.5 11.7z" fill="#219BDA"/><path d="M119.4 280c1.1-2.6 2.3-5 3.9-7.4 2.1-3.3 4.5-6.4 5.9-10.1 1.4-3.7 1.2-7.7 1.4-11.6.1-2.9 1-5.7.7-8.6-.1-1.4-.9-3.6-2.7-3.4-1.4.2-2.2 1.9-2.8 3-.9 1.9-1.6 4-2.3 6-.3.8-.5 1.6-.9 2.4-.2.4-.8 1.5-1.4 1.4-1-.3-.1-4.4.1-5.1.8-3.7 1.9-7.1 2.1-10.9.2-5.5-.2-12.1-5.6-15.1-1.4-.8-3.2-1.3-4.5-.1-1.3 1.2-1.7 3.2-1.9 4.8-.6 5.1.6 9.9 2.2 14.7 1.3 4 2.9 8 3.1 12.3.1 4.1-2 7.7-3 11.5-1.6 6.1-1.3 9.4-1.3 11.4 0 2.5.1 4.9.3 7.4.2 2.3.4 4.6.6 6.8.1.5.1.9.2 1.4-.9-2.1-1.2-4.5-1.9-6.6-1.3-3.8-2.8-7.4-4-11.2-1-3.1-2-6.3-3.3-9.3-1.3-2.8-2.8-5.8-5.2-7.9-1.4-1.3-3.2-2-5.1-2-1.2 0-2.3.4-3.5.7-1.4.4-2.6.2-3.7-.7-3.9-3-5-8.3-7.9-12-2.1-2.8-7.2-7.6-10.9-4.5-2 1.6-2.5 4.8-2.4 7.2.1 3 1.4 5.8 3 8.3 1.7 2.7 3.8 5.1 5.4 7.8.9 1.6 1 3.2.9 5-.1 1.7-.3 3.4.3 5.1 1.8 5 7.3 4.3 11.6 4.4 3 .1 6.2.5 9.1 1.5 3.3 1.1 5.4 3.3 6.6 6.5.9 2.4 1.3 5 2.9 7.1.8.9 1.8 1.6 2.9 2.1 1.7.7 6.8 1.1 6.8.6.1-1.6.9-3.2 1.3-4.7.9-2.8 1.9-5.5 3-8.2zM143.1 279.1c-.4-2.9-.4-6-1.7-8.7-.1-.2-.4-.2-.5-.1-1 .5-1 2.1-1.1 3.1-.1 1.6 0 3.2-.2 4.8-.3 2.8-1 5.7-2 8.3-1.1 3-3.2 4.7-6.2 5.6-1.9.6-3.8 1.1-5.4 2.4-1.4 1.1-2.4 2.7-3.2 4.4-2 4.5-3 9.5-3.9 14.4-.6 3.2-1.1 6.5-1.9 9.7-.8 3.2-1.6 6.4-2.1 9.7-.1.2-.2.3-.2.5-.2.5.6.8.8.3 3.1-4.8 6.9-9.1 12.1-11.7 2.3-1.2 5.4-1.4 7.4-3.3 1.5-1.4 1.7-3.6 1.5-5.5-.3-2.5-1.5-4.6-2.8-6.8-.7-1.2-1.5-2.5-1.2-3.9.3-1.4 1.4-2.4 2.5-3.1 2.1-1.3 4.7-1.9 6.4-3.9 1.6-1.8 2.5-4 2.7-6.4.1-3.2-.5-6.7-1-9.8zM100.8 295.6c-2.7-3.5-6.1-6.6-9.8-9.1-2-1.3-6.7-3.9-7.6 0-.6 2.3 1.7 4.5 3.1 6 2.2 2.1 4.8 4 6.6 6.5-2.3.7-4.7.9-6.7 2.5-2.4 1.9-3.4 5.5-1.1 7.8 1.1 1.1 2.7 1.8 4.1 2.5 1.9.9 3.7 1.7 5.6 2.5 4.1 1.7 8.3 3.5 11.8 6.3 3.6 2.9 6.9 7.7 7.2 12.4 0 .4-.1 0 .1-.2.1.1.6-.1.6-.4-.1-6.9-1.3-13.5-4.2-19.9-2.5-5.9-5.8-11.8-9.7-16.9z" fill="#219BDA"/><path d="M91.3 231c1.5 3.1 3.1 6.2 4.8 9.3 1.6 2.9 3.2 5.9 4.4 9 1.5 3.9 3 7.7 4.6 11.5 1.6 4 3.1 8.1 4.3 12.2 2.3 8.1 4 16.4 4.8 24.8.4 4.3.6 8.5.5 12.8-.1 3.3-.5 6.7-.8 10-.3 3.5-.6 7-.3 10.4.2 2.9.7 6.4 3 8.4.4.4 1.1-.1.8-.6-2.7-5.5-2.5-11.5-2-17.4.3-3.3.7-6.6.8-9.9.1-4.2 0-8.4-.4-12.6-.8-8.2-2.4-16.3-4.5-24.3-1.1-4.1-2.4-8.1-4-12-1.6-3.9-3.4-7.8-4.9-11.7-2.7-7.2-6.9-13.5-10.6-20.2-.2-.3-.7 0-.5.3z" fill="#43588E"/><path d="M114.4 289.6c.4-5.2.9-10.2 2.7-15.2.8-2.3 1.8-4.6 2.6-6.9.7-1.9 1.6-4.6 1.1-6.6-.1-.2-.4-.2-.5 0-.3 1.2-.3 2.5-.5 3.7-.2 1.2-.6 2.3-.9 3.4-.8 2.4-1.8 4.7-2.7 7.1-1.7 4.6-2.6 9.7-2.2 14.6 0 .2.3.2.4-.1zM84.1 259.6c2.1 5 8.3 5.3 12.8 6.4 3.2.8 5.6 3 7.3 5.8 1.9 3.1 3.2 6.7 4.2 10.1h.1c-1.3-6-3.1-13.2-9.3-16-5-2.2-11.5-1.1-14.7-6.5 0-.2-.5-.1-.4.2zM111.1 288.8c.2.3.5.7.7 1 .1.2.3.3.4.4.2.1.4.3.6.3.1 0 .2-.1.1-.2-.1-.2-.3-.3-.4-.4l-.4-.4c-.3-.3-.6-.6-.8-.9-.2.1-.3.2-.2.2zM98.1 304.7c3.6 2.9 6.9 6.4 9.5 10.2 1.3 1.8 2.4 3.7 3.5 5.7 1.1 2.1 1.9 4.4 2.8 6.6.1.2.4.2.4 0-.5-4.7-3.5-8.7-5.9-12.7-1.2-2-2.8-3.7-4.4-5.4-1.7-1.8-3.5-3.4-5.5-4.8-.3-.2-.6.2-.4.4zM126.6 299.2c-1.7 1-1.8 3.7-1.8 5.4-.1 3.3.8 6.5-.7 9.6-1.3 2.9-3.4 5.3-5.1 7.9-1.6 2.5-3.1 5.7-3.1 8.7 0 .2.3.3.3.1.6-1.4.9-2.9 1.3-4.3.5-1.6 1.2-3.1 2.1-4.5 1.6-2.5 3.6-4.7 4.9-7.4 1.4-2.8 1.2-5.6 1.1-8.6-.1-1.9-.3-5.1 1.3-6.5.3-.2 0-.6-.3-.4z" fill="#43588E"/><path d="M115.1 331.2c-6.9-.1-20.1-.2-20.1-.2l3.3 24.3c.7 5.5 5.4 9.5 10.9 9.5h12c5.5 0 10.2-4.1 10.9-9.5l3.3-24.3c-.2 0-13.4.1-20.3.2z" fill="#fff"/><path d="M450.2 286.6L410.6 365l-115.3.8 35.6-80.3 119.3 1.1z" fill="#2E4168"/><path d="M218.8 365.3V359h74.6l34.3-75.3h119.4l3 2.9H333.6l-35.7 78.6s-79.1-.1-79.1.1z" fill="#5C6987"/><path d="M390.3 329.8c-1.3 3.9-8.4 6.9-15.8 6.7-7.4-.2-12.4-3.5-11.1-7.4 1.3-3.9 8.4-6.9 15.8-6.7 7.5.2 12.4 3.5 11.1 7.4z" fill="#8394B7"/><path d="M297.9 365.7h-.2c-.3-.1-.4-.4-.2-.7l35.8-78.9h116.9c.3 0 .5.2.5.5s-.2.5-.5.5H333.9l-35.6 78.3c-.1.2-.2.3-.4.3z" fill="#768399"/><path d="M213.6 371.2H76.4v30.4h137.2v-30.4z" fill="#596B9B"/><path d="M459.6 371.2H212.8v30.4h246.8v-30.4z" fill="#7A89AF"/><path d="M213.6 371.2H76.4v5.6H459.6v-5.6h-246z" fill="#BDC4D7"/><path d="M219.6 365.2H69.8v7.4h149.8v-7.4z" fill="#6F7FA9"/><path d="M465.6 365.2H218.8v7.4h246.8v-7.4z" fill="#9CA6C3"/><path d="M179 205.7h-48.4c-3 0-5.4-2.4-5.4-5.4v-24.2c0-3 2.4-5.4 5.4-5.4H179c3 0 5.4 2.4 5.4 5.4v24.2c0 2.9-2.4 5.4-5.4 5.4z" fill="#fff"/><path d="M198.2 188.1l-18.2-7.6v15.3l18.2-7.7z" fill="#fff"/><path d="M143.3 191.4a3.3 3.3 0 100-6.6 3.3 3.3 0 000 6.6zM154.8 191.4a3.3 3.3 0 100-6.6 3.3 3.3 0 000 6.6zM166.2 191.4a3.3 3.3 0 100-6.6 3.3 3.3 0 000 6.6z" fill="#223A7A"/><path d="M425.5 96.3H313.7c-7.2 0-13 5.8-13 13v53c0 7.2 5.8 13 13 13h10c.3 4.8-.4 12-4.4 21.1 12.9-6 20.4-14.9 24.2-21.1h82c7.2 0 13-5.8 13-13v-53c0-7.2-5.8-13-13-13z" fill="#219BDA"/><path d="M377.8 121.5h-55.4c-1.5 0-2.8-1.2-2.8-2.8 0-1.5 1.2-2.8 2.8-2.8h55.4c1.5 0 2.8 1.2 2.8 2.8 0 1.6-1.3 2.8-2.8 2.8z" fill="#fff"/><path d="M417.6 137.6h-96.3c-.9 0-1.7-.8-1.7-1.7 0-.9.8-1.7 1.7-1.7h96.3c.9 0 1.7.8 1.7 1.7 0 1-.8 1.7-1.7 1.7zM417.6 147h-96.3c-.9 0-1.7-.8-1.7-1.7 0-.9.8-1.7 1.7-1.7h96.3c.9 0 1.7.8 1.7 1.7 0 .9-.8 1.7-1.7 1.7zM396.6 157h-75.3c-.9 0-1.7-.8-1.7-1.7 0-.9.8-1.7 1.7-1.7h75.3c.9 0 1.7.8 1.7 1.7 0 .9-.8 1.7-1.7 1.7z" fill="#D2E6FF"/><path d="M416.8 121.5h-26.5c-1.5 0-2.8-1.2-2.8-2.8 0-1.5 1.2-2.8 2.8-2.8h26.5c1.5 0 2.8 1.2 2.8 2.8 0 1.6-1.3 2.8-2.8 2.8zM314.7 365.3h-21.2c-1.9 0-3.5-1.6-3.5-3.5v-29.9c0-.8.7-1.5 1.5-1.5h25.3c.8 0 1.5.7 1.5 1.5v29.9c-.1 1.9-1.6 3.5-3.6 3.5z" fill="#fff"/><path d="M304.1 354.6a6.8 6.8 0 006.8-6.8 6.8 6.8 0 00-6.8-6.8 6.8 6.8 0 00-6.8 6.8 6.8 6.8 0 006.8 6.8z" fill="#9F9CF2"/><path d="M304.6 349.2c-1.2.8-2.4 1-2.8.5-.3-.4-.2-1 .3-1.7.2.1.5.2.8.3.2 0 .5 0 .7.1h.2c.2 0 .4 0 .6.1l.1.1c-.1.2 0 .4.1.6zM305.7 348.1c-.1-.2-.3-.7-.6-.8-.4-.2-.9-.3-1.2-.3H303.1l.2-.2c1.3-1 2.7-1.4 3.2-.8.3.3 0 1.3-.8 2.1z" fill="#3B2CAC"/></svg>