<svg width="288" height="120" fill="none" xmlns="http://www.w3.org/2000/svg"><g clip-path="url(#clip0_163_592)"><path fill-rule="evenodd" clip-rule="evenodd" d="M58.259 33.516c8.896.038 25.06 5.387 13.211 27.756a28.235 28.235 0 01-2.839 10.474l-.227.449c-4.24 8.154-12.152 13.765-21.312 15.187-8.67 4.19-18.322 4.825-26.423-.262-5.262-3.33-7.344-9.127-7.571-16.758-9.502 32.244 32.328 34.039 54.284 10.212 19.381-21.023 25.06-54.277-9.123-47.058zM35.621 25.175c19.041-7.556 34.903-9.577 47.735 2.244L73.704 0 35.622 25.175z" fill="#3A2E94"/><path fill-rule="evenodd" clip-rule="evenodd" d="M67.723 71.297l-.227.449c-4.618 8.865-13.703 14.588-23.773 14.962-.757.038-1.552.038-2.347 0l-.151-.037h-.152a28.523 28.523 0 01-10.107-2.544l-.114-.075c-.037 0-.075-.037-.113-.037a26.895 26.895 0 01-6.89-4.676c-.567-.486-1.06-1.01-1.59-1.57l-.113-.113-.114-.112a28.04 28.04 0 01-3.71-5.237c-.113-.187-.189-.374-.302-.561-.871-1.721-1.59-3.517-2.082-5.35-.038-.074-.038-.15-.038-.224-.038-.075-.038-.112-.076-.187-3.71-14.738 5.3-29.626 20.215-33.33.378-.074.757-.186 1.135-.261h.152c.038 0 .113-.037.151-.037a28.27 28.27 0 019.388-.225c.038 0 .076 0 .114.038h.113c2.802.411 5.49 1.271 8.025 2.506l.114.075.114.037c2.347 1.16 4.466 2.656 6.397 4.414l.454.412.076.074c.038.038.076.038.076.075 8.441 8.304 10.6 20.985 5.375 31.534zM41.225 87.68h-.152c-3.634-.225-7.192-1.085-10.486-2.619l-.151-.075-.151-.074a28.881 28.881 0 01-7.155-4.826 22.306 22.306 0 01-1.628-1.646l-.113-.112-.114-.112a28.718 28.718 0 01-3.823-5.424 2.964 2.964 0 01-.303-.599 28.395 28.395 0 01-2.158-5.573c-.038-.075-.038-.15-.038-.224-.037-.075-.037-.15-.075-.188-3.9-15.224 5.45-30.71 20.896-34.526.378-.112.794-.187 1.173-.261.038 0 .114 0 .151-.038l.152-.037c3.218-.599 6.511-.711 9.729-.225l.151.038h.114a29.545 29.545 0 018.328 2.618l.113.075.076.037c2.423 1.197 4.656 2.768 6.625 4.564l.454.449.075.112.076.075c8.745 8.566 11.016 21.695 5.603 32.656l-.227.449c-4.77 9.164-14.196 15.112-24.644 15.486-.795.037-1.59.037-2.423 0h-.075z" fill="#1B1B1B"/><path d="M17.111 67.78c-.189-.523-.378-1.047-.53-1.57l-.113-.487c.151.636.378 1.272.606 1.908l.037.15zM17.489 68.64l.189.525c-.19-.375-.34-.749-.492-1.123l-.037-.15c.113.225.226.487.34.749zM66.625 71.297a15.2 15.2 0 01-1.363 1.72l.076-.224c.568-.599 1.06-1.272 1.514-1.945-.076.187-.151.3-.227.449zM18.02 48.33l.226-.45c-.416.823-.719 1.684-.946 2.581-.076.15-.114.337-.151.487.189-.898.492-1.796.87-2.619zM33.615 76.01l-.075.224a34.22 34.22 0 01-9.502-6.433l.076-.225a35.363 35.363 0 009.501 6.434zM18.095 60.86a25.201 25.201 0 005.792 8.492l-.076.224a25.575 25.575 0 01-5.791-8.491l.075-.225zM45.729 79.19l-.076.224a37.11 37.11 0 01-5.035-.786 35.696 35.696 0 01-6.738-2.281l.076-.225c2.158.973 4.429 1.72 6.738 2.282 1.666.412 3.331.673 5.035.785zM65.073 73.204c-2.196 2.282-4.96 3.966-7.988 4.938l.076-.224a19.478 19.478 0 007.987-4.938l-.075.224zM56.897 78.03l-.076.224a28.581 28.581 0 01-10.827 1.197l.076-.224c3.672.3 7.344-.112 10.827-1.197zM68.442 67.556l-.152.486-.038.075.038-.187c.076-.112.114-.262.152-.374zM18.018 60.599l-.113.224c-.985-2.506-1.401-5.2-1.136-7.893.038-.15.076-.337.114-.486v.075a17.374 17.374 0 001.135 8.08zM65.527 64.638a17.388 17.388 0 01-7.117 4.414v-.299a17.175 17.175 0 007.079-4.376l.038.261zM69.046 57.344a12.865 12.865 0 01-3.369 7.145l-.038-.262c1.817-1.983 2.99-4.452 3.331-7.07l.076.187zM69.086 57.12l-.076-.225c.114-.86.114-1.72.038-2.58.038.149.076.336.076.523.076.748.038 1.496-.038 2.282zM23.735 53.603a22.077 22.077 0 005.148 7.557l-.19.224c-2.233-2.17-4.012-4.75-5.186-7.593l.228-.188zM58.145 68.865v.3a25.525 25.525 0 01-9.653 1.084l.038-.299a26.91 26.91 0 009.615-1.085zM67.987 49.601l.076.15c.113.299.226.598.34.935l-.076-.15c-.113-.3-.227-.598-.34-.935zM30.89 35.274l.53-.224c-.644.3-1.25.598-1.856.972-.151.075-.34.188-.492.3a15.103 15.103 0 011.817-1.048zM48.265 69.913l-.076.299c-1.514-.112-3.028-.374-4.505-.71a33.427 33.427 0 01-6.019-2.02l.114-.263c1.93.86 3.937 1.534 5.981 2.02 1.514.3 2.99.524 4.505.674zM23.66 53.38l-.19.186a15.181 15.181 0 01-.984-7.22c.038-.373.114-.71.19-1.084l.226-.15c-.075.337-.113.711-.151 1.048-.34 2.468 0 4.937.909 7.22zM68.403 50.76l.076.188c.113.411.227.785.34 1.197-.038-.187-.114-.375-.151-.524a7.482 7.482 0 01-.265-.86zM37.514 67.07l-.113.262a29.72 29.72 0 01-8.48-5.76l.19-.225c2.422 2.356 5.3 4.301 8.403 5.723zM67.988 49.601l-.152-.374c.076.15.114.262.152.374zM22.901 44.925l-.227.15a13.428 13.428 0 013.861-6.808l.076-.038.151-.074c-1.968 1.795-3.293 4.152-3.861 6.77zM26.916 37.967l.038-.037-.038.037zM34.638 36.696c1.514-1.347 3.293-2.32 5.262-2.806l.151.075c-1.93.524-3.71 1.459-5.186 2.768l-.227-.037zM64.316 50.05l-.19-.187c.152-1.422 0-2.88-.416-4.264l.19.112c.454 1.421.568 2.88.416 4.339zM54.663 35.798l.037-.038a21.71 21.71 0 015.716 4.227l-.151-.037a19.768 19.768 0 00-5.602-4.152zM32.062 41.521l-.303.038c.417-1.833 1.363-3.517 2.726-4.788h.265a9.12 9.12 0 00-2.688 4.75zM32.593 47.431l-.265.15a10.459 10.459 0 01-.682-5.05c.038-.262.076-.486.114-.748l.303-.075c-.038.262-.076.486-.114.748-.227 1.684.038 3.404.644 4.975zM60.567 40.137a15.413 15.413 0 013.293 5.424l-.19-.112a14.924 14.924 0 00-3.217-5.35l.114.038zM40.24 33.89l-.15-.075a18.803 18.803 0 016.927-.411l.075.075c-2.309-.3-4.618-.15-6.851.411zM61.856 55.324a12.62 12.62 0 01-4.997 3.105l-.076-.3a12.185 12.185 0 004.922-3.03l.151.225zM49.703 58.915l-.038.3c-1.06-.075-2.12-.262-3.18-.487a24.518 24.518 0 01-4.24-1.421l.152-.3c1.325.599 2.726 1.085 4.164 1.385 1.06.261 2.12.411 3.142.523zM56.592 58.167l.076.3a18.102 18.102 0 01-6.776.748l.038-.3a17.513 17.513 0 006.662-.748zM47.28 33.479l-.075-.075c.719.075 1.476.224 2.195.374 1.78.412 3.483 1.01 5.11 1.833l-.037.037c-1.59-.785-3.294-1.421-5.035-1.795-.72-.15-1.438-.262-2.158-.374zM42.246 56.933l-.152.299a21.346 21.346 0 01-5.943-4.04l.227-.224a20.214 20.214 0 005.868 3.965zM64.315 50.2c-.265 1.87-1.06 3.628-2.347 5.012l-.152-.262c1.25-1.384 2.082-3.105 2.31-4.938l.189.188zM32.669 47.581a16.124 16.124 0 003.558 5.237l-.227.224a16.067 16.067 0 01-3.634-5.311l.303-.15zM51.785 39.165l.114-.15c.832.411 1.59.973 2.233 1.646l-.227.075a9.406 9.406 0 00-2.12-1.571zM55.607 44.589l-.302-.113c.075-.523 0-1.084-.151-1.608l.264.037c.19.524.265 1.122.19 1.684zM55.609 44.663a3.451 3.451 0 01-.909 1.946l-.227-.225c.492-.524.795-1.16.87-1.87l.266.15zM54.662 46.646a4.53 4.53 0 01-1.93 1.197l-.152-.262c.72-.224 1.325-.636 1.855-1.16l.227.225zM43.495 43.616a5.908 5.908 0 001.325 1.983l-.227.187c-.605-.599-1.098-1.31-1.4-2.058l.303-.112zM44.064 39.39a4.695 4.695 0 012.044-1.086l.19.187c-.72.187-1.401.561-1.97 1.048l-.264-.15zM43.457 43.541l-.303.075a3.958 3.958 0 01-.265-1.983l.038-.299.34.038-.037.261c-.076.674 0 1.31.227 1.908zM46.334 38.454l-.151-.187c.87-.225 1.779-.3 2.687-.15l.038.187c-.833-.112-1.703-.037-2.574.15zM54.133 40.736a5.58 5.58 0 011.287 2.132l-.265-.038a6.138 6.138 0 00-1.212-2.02l.19-.074zM43.267 41.334l-.34-.037c.15-.711.53-1.384 1.06-1.87l.264.112c-.454.486-.833 1.122-.984 1.795zM48.985 38.304l-.038-.187c.303.038.568.075.87.15.682.15 1.363.411 2.007.71l-.114.15a8.778 8.778 0 00-1.892-.673 5.478 5.478 0 00-.833-.15zM47.091 47.132l-.113.262c-.871-.374-1.628-.935-2.31-1.571l.228-.187c.643.636 1.4 1.122 2.195 1.496zM49.893 47.843v.3c-.416-.038-.833-.113-1.249-.188-.568-.15-1.098-.3-1.628-.561l.114-.262a7.58 7.58 0 001.552.524c.416.112.833.187 1.211.187zM52.504 47.581l.151.3a7.06 7.06 0 01-2.65.299v-.3c.833.038 1.666-.037 2.499-.299z" fill="#1B1B1B"/><path d="M16.958 67.032a26.209 26.209 0 01-.114-15.074v.037a13.848 13.848 0 00-.643 2.132l.076-.449a11.6 11.6 0 01.605-1.945l.076-.224c.076-.187.114-.412.19-.599.075-.187.113-.336.15-.486a26.963 26.963 0 017.875-11.409c-.455.3-.871.673-1.288 1.047l.303-.261c.379-.375.795-.711 1.25-1.01 1.135-.936 2.309-1.796 3.596-2.544.151-.112.34-.187.492-.3a26.281 26.281 0 016.132-2.468l-.303.075.152-.038.151-.037c.114-.038.227-.038.341-.075a27.364 27.364 0 015.792-.823c4.58-.15 9.123.823 13.211 2.88l.227.113a26.374 26.374 0 017.08 5.274c.113.112.226.187.34.3l.19.224a2.434 2.434 0 00-.342-.3A26.485 26.485 0 0168.1 50.05c.076.15.151.337.227.486l.076.15c.038.15.113.299.151.411l.114.337a2.145 2.145 0 00-.19-.524l-.075-.187c-.038-.15-.114-.262-.152-.411.152.411.265.823.417 1.234.038.187.113.374.151.524.568 2.02.87 4.114.947 6.21.037.897.037 1.795-.038 2.655 0 .412-.038.823-.076 1.197l-.038.449c.038-.411.076-.786.076-1.197a26.713 26.713 0 01-1.363 6.434l-.038.187c-4.959 13.915-20.366 21.21-34.41 16.31a27.313 27.313 0 01-10.22-6.36l.075.075-.19-.187-.113-.112a27.13 27.13 0 01-5.716-8.679l-.19-.523c-.15-.412-.302-.823-.416-1.197.038.15.076.299.076.449l.038.15c.076.261.151.56.265.822l-.114-.337c-.075-.224-.151-.486-.227-.71l-.038-.187c-.113-.075-.151-.262-.151-.487zm1.968 4.265c.076.187.19.374.303.523a27.457 27.457 0 003.559 5.013 3.286 3.286 0 01-.265-1.047v-.15c-.19-1.459.189-3.33 1.097-5.648l.19-.487.075-.224a41.809 41.809 0 014.808-7.968l.19-.224c2.157-2.88 4.542-5.574 7.116-8.117l.227-.225c2.612-2.544 5.413-4.938 8.366-7.07l.227-.187a53.512 53.512 0 014.618-2.955c-1.552.935-3.104 1.908-4.58 2.993l-.227.187a74.847 74.847 0 00-8.29 7.144l-.228.225a69.92 69.92 0 00-7.078 8.192l-.19.224a41.912 41.912 0 00-4.77 8.005l-.075.225c-.076.15-.151.336-.19.486-.946 2.32-1.286 4.19-1.135 5.61v.15c.038.375.152.749.303 1.085.492.524.984 1.048 1.514 1.534a25.97 25.97 0 006.663 4.489c.037-.412.151-.786.265-1.197l.037-.112c.341-1.085.947-2.806 1.893-5.125.076-.15.114-.337.19-.486l.075-.225a393.322 393.322 0 013.748-8.678l.113-.262c1.439-3.18 2.99-6.546 4.58-9.838l.152-.3c1.59-3.328 3.218-6.583 4.732-9.575l.114-.262c.832-1.609 1.59-3.105 2.347-4.489-.72 1.422-1.477 2.918-2.272 4.526l-.113.262a489.146 489.146 0 00-4.619 9.614l-.151.299a519.258 519.258 0 00-4.505 9.875l-.113.262c-1.4 3.18-2.688 6.135-3.71 8.678l-.076.225c-.075.15-.113.337-.189.486a102.455 102.455 0 00-1.93 5.087l-.039.113a4.236 4.236 0 00-.264 1.197 26.611 26.611 0 009.728 2.431c.53-.15.985-.449 1.363-.823l.076-.075c.946-.935 1.93-2.543 2.839-4.863l.19-.486.075-.224a56.7 56.7 0 002.46-9.015l.076-.3c.681-3.516 1.136-7.107 1.439-10.66l.037-.3c.265-3.59.341-7.182.228-10.773v-.187a55.152 55.152 0 00-.455-5.237c.227 1.646.417 3.404.53 5.237v.3c.19 3.59.152 7.182-.075 10.773l-.038.299a92.783 92.783 0 01-1.325 10.698l-.038.3c-.568 3.067-1.363 6.097-2.423 9.014l-.075.225c-.076.15-.114.336-.19.486-.946 2.32-1.93 3.928-2.877 4.863l-.075.075c-.379.374-.871.673-1.363.823.757.037 1.476.037 2.233 0 2.99-.113 5.943-.711 8.745-1.758l.265-.15.151-.075c1.514-1.01 2.801-2.656 3.748-4.938.075-.15.113-.336.189-.486l.076-.224c.908-2.581 1.325-5.611 1.287-8.903v-.3c-.076-3.516-.606-6.994-1.477-10.36l-.075-.3a50.787 50.787 0 00-3.975-10.287l-.151-.3a44.883 44.883 0 00-3.029-4.974c1.136 1.57 2.196 3.217 3.104 4.937l.152.262a50.008 50.008 0 014.088 10.25l.076.299a45.42 45.42 0 011.552 10.361v.3c.038 3.291-.34 6.322-1.25 8.903l-.075.224c-.076.15-.114.337-.19.486-.946 2.32-2.233 3.965-3.747 4.938l-.151.075-.19.112.757-.3c.19-.074.379-.149.568-.261a26.324 26.324 0 008.252-5.948c.644-.71 1.288-1.421 1.855-2.207.265-.449.493-.935.682-1.384.076-.15.113-.337.19-.486l.075-.225c.87-2.543.946-5.386.416-8.341l-.038-.262c-.681-3.217-1.93-6.247-3.634-9.052l-.151-.262c-1.93-3.142-4.316-5.948-7.041-8.454l-.227-.225a44.54 44.54 0 00-4.96-3.815 43.292 43.292 0 014.998 3.74l.227.225c2.763 2.431 5.148 5.274 7.116 8.38l.152.261a28.955 28.955 0 013.71 9.015l.038.262c.567 2.955.492 5.798-.38 8.341l-.075.225c-.076.15-.113.336-.19.486-.188.412-.378.823-.605 1.234a24.785 24.785 0 002.12-3.44l.227-.45a25.891 25.891 0 002.688-11.52 11.685 11.685 0 00-.492-1.983l-.076-.225a17.394 17.394 0 00-4.694-6.92l-.19-.187c-2.498-2.282-5.375-4.077-8.517-5.387l-.302-.112a39.758 39.758 0 00-5.868-1.908c11.13 2.581 18.852 9.202 20.063 16.272v-.56c-.038-1.16-.189-2.357-.378-3.517-.038-.15-.038-.337-.076-.524-.34-1.833-.909-3.59-1.628-5.312a11.433 11.433 0 00-3.558-3.291l-.19-.112c-2.195-1.31-4.996-2.245-8.252-2.694l-.265-.037a41.505 41.505 0 00-5.716-.262c1.893-.075 3.786-.037 5.678.187l.265.037c3.256.412 6.057 1.31 8.215 2.619l.19.112a11.705 11.705 0 013.482 3.18 26.467 26.467 0 00-5.716-8.23c-.341-.15-.682-.299-1.06-.374l-.152-.037c-1.59-.337-3.747-.15-6.283.636l-.228.075c-1.552.486-3.028 1.122-4.467 1.832a38.208 38.208 0 014.43-1.87l.227-.075c2.498-.823 4.618-1.047 6.208-.71l.151.037c.34.075.682.187 1.022.337-.151-.15-.303-.262-.416-.412-1.855-1.683-3.9-3.142-6.17-4.264l-.114.075-.038.037c-.605.411-1.552 1.496-2.801 3.254l-.114.15c-.681.973-1.438 2.095-2.309 3.441.833-1.346 1.59-2.506 2.234-3.478l.113-.15c1.212-1.758 2.12-2.88 2.688-3.292l.038-.037.113-.075a25.365 25.365 0 00-7.722-2.394c.113.075.227.187.303.262l.075.075c.72.822 1.288 2.356 1.666 4.638l.038.187c.227 1.422.379 2.88.454 4.302-.113-1.46-.265-2.88-.53-4.302l-.038-.187c-.454-2.282-1.06-3.816-1.817-4.638l-.075-.075c-.114-.112-.227-.187-.341-.3a26.273 26.273 0 00-9.047.225c.832.037 1.665.224 2.46.486l.152.075c1.93.748 3.974 2.207 5.943 4.377l.151.187c1.136 1.309 2.196 2.693 3.104 4.152a33.653 33.653 0 00-3.18-4.152l-.189-.187c-2.006-2.17-4.088-3.629-6.057-4.377l-.151-.075a8.46 8.46 0 00-2.536-.486 26.746 26.746 0 00-10.41 4.564l-.076.037h.038a15.206 15.206 0 017.722-1.272l.265.038a26.333 26.333 0 019.199 2.693l.265.112a37.07 37.07 0 015.11 3.105c-1.628-1.16-3.369-2.17-5.186-3.067l-.265-.113c-2.915-1.421-6.019-2.319-9.274-2.618h-.265c-2.915-.187-5.565.262-7.76 1.309l-.152.075-.076.037a26.53 26.53 0 00-8.858 11.82 15.506 15.506 0 014.997-5.012l.227-.15a26.101 26.101 0 018.896-3.329l.303-.037c3.596-.598 7.268-.71 10.902-.262l.341.038c2.082.261 4.164.71 6.17 1.271a43.92 43.92 0 00-6.17-1.234l-.34-.037a38.035 38.035 0 00-10.903.336l-.303.075a25.492 25.492 0 00-8.896 3.404l-.227.15a15.124 15.124 0 00-5.11 5.237c-.227.636-.417 1.271-.606 1.907-.038.15-.076.337-.114.487-1.06 4.226-1.06 8.64.038 12.83 0-1.534.303-3.03.871-4.451.076-.15.114-.337.19-.487l.113-.224c1.136-2.469 3.028-4.863 5.413-7.033l.19-.187a39.886 39.886 0 018.668-5.835l.265-.15a48.51 48.51 0 0110.524-3.815l.303-.075a46.231 46.231 0 015.98-.935 44.727 44.727 0 00-5.942.972l-.303.075a50 50 0 00-10.524 3.89l-.265.15a40.738 40.738 0 00-8.63 5.873l-.19.187c-2.385 2.207-4.278 4.601-5.413 7.07l-.076.224a2.58 2.58 0 00-.19.487 11.313 11.313 0 00-.87 4.6c.454 1.796 1.136 3.517 1.968 5.163z" fill="#1B1B1B"/><path fill-rule="evenodd" clip-rule="evenodd" d="M36.152 97.93c-8.631-.71-17.565-.224-22.713-8.903-20.025-33.59 70.675-84.276 70.22-40.137l.303 2.282c3.142-7.63 1.969-18.067-2.384-22.668-5.149-5.462-11.849-7.78-22.108-7.108-18.851 1.87-30.89 6.659-41.45 16.796C6.435 49.377-.266 62.17 0 78.741c.265 14.177 11.092 20.573 23.395 20.61 4.39 0 10.069-.635 12.757-1.42z" fill="#44A1D1"/><path fill-rule="evenodd" clip-rule="evenodd" d="M50.008 94.825c-19.042 7.557-34.903 9.576-47.736-2.244l9.616 27.456 38.12-25.212z" fill="#44A1D1"/><path d="M272.63 73.616l2.158-2.768-2.158-2.768v-1.422h2.196l2.877 3.48v1.42L274.864 75h-2.234v-1.384zm3.256 2.32l4.126-5.088-4.126-5.05v-1.421h2.195l4.846 5.76v1.422l-4.808 5.798h-2.233v-1.422zm-12.227 0h3.558v-2.881h-3.558v2.88zm-1.174 2.88c-.189 0-.341-.038-.492-.075a.603.603 0 01-.379-.3c-.113-.112-.189-.299-.227-.448a3.222 3.222 0 01-.075-.599v-5.798c0-.224.037-.411.113-.599.038-.15.152-.336.265-.448.114-.113.265-.225.417-.262.151-.038.265-.075.416-.075l4.694-.037v-3.068h-3.558v1.496h-2.385v-2.917c0-.112 0-.262.038-.374 0-.112.037-.187.075-.3 0-.074.038-.112.076-.186.038-.075.076-.113.114-.188l.113-.112c.038-.037.076-.037.114-.075.075 0 .113 0 .151-.037h.114l6.624-.037c.038.037.076.037.114.037.038.037.113.037.151.037.076.038.114.075.19.075.075.038.113.112.189.15.113.075.151.187.189.3 0 .111.038.26.038.373v10.549h1.211v2.88l-8.29.037zm-19.003-14.44h14.082c.151 0 .341.038.492.113a.6.6 0 01.379.3c.113.149.151.298.189.485.038.187.038.374.038.561v10.1h1.325v2.88h-4.77v-2.88h1.136v-8.64h-3.483v8.64h1.287v2.88h-4.845v-2.88h1.173v-8.64h-3.52v8.64h1.287v2.88h-4.808v-2.88h1.174v-8.64h-1.174l.038-2.918zm-7.344 11.56h3.634v-8.642h-3.634v8.641zm4.694-11.56h.265c.038.038.114.038.152.038.037 0 .075 0 .113.037.114.038.189.075.303.113.076.037.151.112.227.187a.282.282 0 01.076.15c0 .074.038.186.038.224 0 .075 0 .112.038.187v12.643c0 .075-.038.112-.038.187 0 .038-.038.112-.038.15 0 .075-.038.112-.076.15-.076.187-.265.299-.454.336-.189.037-.417.037-.606.037h-4.618v2.88h1.135v2.919h-4.694v-2.918h1.212V67.294h-1.212v-2.917h8.177zm-11.773 11.522v-8.641h-3.482v8.64h3.482zm-5.564 2.506a.848.848 0 01-.228-.449c-.037-.187-.037-.411-.037-.598V65.798c0-.187.037-.337.075-.524s.114-.336.227-.486c.114-.112.265-.187.417-.262a.768.768 0 01.416-.112l5.981-.037c.19 0 .341.037.53.112.152.037.303.112.379.262.113.15.227.299.265.486.038.187.076.411.076.598v11.522c0 .224-.038.411-.076.636a.694.694 0 01-.265.448.6.6 0 01-.379.3c-.151.037-.34.075-.53.075h-5.981a1.92 1.92 0 01-.454-.075c-.151-.075-.303-.15-.416-.3v-.037zm-2.802.374h-4.164v2.806h1.212V84.5h-4.732v-2.917h1.135v-2.806h-4.164l-.113-.037c-.114-.038-.227-.038-.341-.038a.584.584 0 01-.416-.299c-.114-.112-.19-.3-.227-.486-.076-.187-.076-.412-.076-.599V65.686c0-.112 0-.262.038-.374.038-.112.038-.187.075-.3 0-.074.038-.15.114-.186l.114-.188c.113-.112.302-.187.454-.224.151-.037.341-.037.492-.037h4.088v-3.143h-1.135v-2.917h4.732v2.917h-1.25v3.105h4.164c.19 0 .417.038.606.075a.649.649 0 01.454.374c.076.15.152.3.152.486v12.569c-.038.075-.038.112-.038.187s-.038.15-.038.187c0 .075-.038.112-.076.15-.075.074-.113.15-.189.187a1.352 1.352 0 01-.341.15c-.075.037-.151.037-.227.037-.113.075-.227.075-.303.037zm-4.126-2.955h2.953v-8.566h-2.953v8.566zm-2.46.075v-8.753h-2.953v8.753h2.953zm-13.931-2.132l3.634-9.427h3.596l-.038 2.918h-1.135v8.64h1.173v2.881h-4.732v-2.88h1.25v-6.135l-3.521 9.015-4.164-9.015v6.135h1.136v2.88h-4.732v-2.88h1.249v-8.641h-1.287v-2.918h3.483l4.088 9.427zm-11.356 2.132v-8.604h-3.483v8.641l3.483-.037zm-5.565 2.506a.847.847 0 01-.227-.449c-.038-.187-.038-.411-.038-.598V65.798c0-.187.038-.337.076-.524.037-.187.113-.336.227-.486.113-.112.265-.224.416-.3a.772.772 0 01.417-.111l5.981-.038c.189 0 .34.038.53.112.151.038.302.113.378.262.114.15.227.3.265.487.038.187.076.411.076.598v11.521c0 .225 0 .412-.076.636a.69.69 0 01-.265.449.601.601 0 01-.378.3 2.266 2.266 0 01-.53.074h-5.981c-.152 0-.303-.037-.455-.075a.792.792 0 01-.416-.299zm-12.189-16.945v5.686l4.769-5.649h-1.249v-2.88h5.83v2.88h-1.552l-5.224 6.397 6.511 8.005h1.552v2.88h-5.83v-2.88h1.022l-5.867-7.332v7.332h1.249v2.88h-4.732v-2.88h1.211v-14.44h-1.211v-2.88h4.694v2.88h-1.173zM158.346 74.4v4.377h-7.116c-.19 0-.379-.037-.568-.112a.907.907 0 01-.379-.374c-.038-.038-.038-.112-.075-.15a.282.282 0 01-.076-.15c-.038-.112-.076-.187-.076-.299v-.187V65.873c0-.225.038-.412.076-.599a1.3 1.3 0 01.227-.523c.114-.113.265-.187.416-.262.152-.038.303-.075.492-.075l7.155-.037v4.376h-2.461v-1.608h-3.558v8.753h3.558v-1.496h2.385zm-18.397 2.956V72.98h-1.439v5.835h-3.52v-2.88h1.211v-8.529h-1.211v-2.88h3.558v5.798h1.363V65.91c0-.187.038-.336.076-.523.038-.188.151-.337.265-.487.113-.112.227-.224.378-.299.114-.075.265-.075.417-.075l6.019-.037c.189 0 .34.037.492.112.151.037.303.112.378.262.152.15.227.3.265.486.038.187.076.412.038.599v11.371c0 .225 0 .45-.076.674a.881.881 0 01-.265.486.598.598 0 01-.378.3 2.248 2.248 0 01-.492.074h-5.981c-.152 0-.303-.037-.455-.075-.151-.075-.302-.15-.416-.3v-.037a.847.847 0 01-.227-.448c.038-.225 0-.412 0-.636zm5.867-1.46V67.37h-3.482v8.529h3.482zm-19.343 2.881h-3.672v-2.88h1.325v-10.1c0-.187.037-.374.075-.561.038-.187.114-.337.227-.486a.603.603 0 01.379-.3c.151-.037.341-.112.53-.112h8.442v2.918h-1.136v8.64h1.136v2.881h-4.808v-2.88h1.325v-8.604h-3.823v11.484zm-7.344-2.88v-8.604h-3.483v8.641l3.483-.037zm-5.565 2.506a.847.847 0 01-.227-.449c-.038-.187-.038-.411-.038-.598V65.798c0-.187.038-.337.076-.524a1.15 1.15 0 01.227-.486c.113-.112.265-.224.416-.3a.772.772 0 01.417-.111l5.981-.038c.189 0 .34.075.53.112.151.038.303.113.378.262.114.15.227.3.265.487.038.187.076.411.076.598v11.521c0 .225-.038.412-.076.636a.69.69 0 01-.265.449.599.599 0 01-.378.3 2.266 2.266 0 01-.53.074h-5.981c-.152 0-.303-.037-.455-.075-.151-.075-.302-.15-.416-.299zm-3.407-19.376l.114.224c0 .075.038.187.038.262 0 .075.037.15.037.224v16.16h1.136v2.88h-4.656v-2.88h1.211V61.496h-4.807v14.44h1.211v2.88h-4.694v-2.88h1.136v-14.44h-1.136v-2.88h9.653l.454.112c.152.075.303.187.379.337l-.076-.037zm-12.87 14.588v1.421h-2.234l-2.801-3.441v-1.421l2.877-3.48h2.195v1.422l-2.12 2.768 2.082 2.731zm-3.294 2.32v1.42H91.76l-4.77-5.797v-1.422l4.845-5.76h2.196v1.421l-4.126 5.05 4.088 5.087z" fill="#3A2E94"/><path d="M240.795 43.055h1.552c.114.187.303.337.492.411.265.112.53.15.795.15.303 0 .568-.038.871-.15a.957.957 0 00.454-.411h1.552a2.133 2.133 0 01-.833 1.421 3.318 3.318 0 01-1.968.524c-.492 0-.984-.075-1.439-.224a2.432 2.432 0 01-.946-.674c-.303-.299-.454-.673-.53-1.047zm.53 10.81h-1.022v-7.481h1.855v4.414l3.899-4.414h.909v7.481h-1.855v-4.301l-3.786 4.301zm-8.593 0h-1.022v-7.481h1.855v4.414l3.899-4.414h.908v7.481h-1.854v-4.301l-3.786 4.301zm-7.684-4.788h2.839v-2.693h1.892v7.481h-1.892v-3.104h-2.839v3.104h-1.893v-7.481h1.893v2.693zm-7.723-1.16c-.568 0-1.098.225-1.476.637-.379.411-.606 1.01-.568 1.57-.038.6.189 1.16.606 1.61.378.41.908.635 1.476.635s1.098-.224 1.476-.636c.417-.449.606-1.01.606-1.608a2.014 2.014 0 00-.606-1.571c-.416-.45-.946-.674-1.514-.636zm2.006-1.533h1.893v7.481h-1.893v-.785c-.34.299-.719.56-1.135.748-.379.15-.795.224-1.212.224a3.402 3.402 0 01-2.536-1.122 3.836 3.836 0 01-1.06-2.805 3.982 3.982 0 011.06-2.843 3.402 3.402 0 012.536-1.122c.455 0 .871.074 1.287.261.417.187.795.412 1.098.748v-.785h-.038zm-12.265 7.481h-1.892v-7.481h6.662v7.481h-1.893V48.18h-2.877v5.686zm-8.479-2.768l2.347-4.713h1.249l1.893 7.481h-1.855l-1.022-4.414-2.271 4.414h-.795l-2.196-4.414-1.022 4.414h-1.855l1.893-7.481h1.249l2.385 4.713zm-10.183-3.142a2.1 2.1 0 00-1.476.599c-.417.411-.606.972-.606 1.57-.038.6.189 1.16.568 1.572.378.411.908.636 1.476.598a2.1 2.1 0 001.476-.598c.417-.412.606-.973.606-1.571a2.065 2.065 0 00-.606-1.571 1.704 1.704 0 00-1.438-.599zm-.038-1.758c.719 0 1.401.187 2.006.524 1.25.673 2.007 1.982 2.007 3.404 0 .71-.19 1.384-.53 1.982a3.73 3.73 0 01-1.439 1.422 4.253 4.253 0 01-2.044.523c-1.06.038-2.044-.374-2.801-1.122a3.918 3.918 0 01-.038-5.573 4.035 4.035 0 012.839-1.16zm-12.189-2.469h1.968v3.516l2.764-3.516h2.347l-3.596 4.526 3.936 5.611h-2.271l-3.18-4.526v4.526h-1.968V43.728zm-10.032 4.19c-.568 0-1.097.224-1.476.636-.416.411-.606 1.01-.568 1.57-.038.6.189 1.16.606 1.61.378.41.908.635 1.476.635s1.098-.224 1.477-.599c.416-.448.605-1.01.605-1.608a2.017 2.017 0 00-.605-1.571c-.417-.486-.947-.71-1.515-.673zm2.007-1.534h1.892v7.481h-1.892v-.785c-.341.299-.72.56-1.136.748-.379.15-.795.224-1.211.224a3.403 3.403 0 01-2.537-1.122 3.84 3.84 0 01-1.06-2.805 4.124 4.124 0 011.022-2.843 3.405 3.405 0 012.537-1.122c.454 0 .87.074 1.287.261.416.187.795.412 1.098.748v-.785zm-12.303 7.481h-1.893v-7.481h6.662v7.481h-1.892V48.18h-2.839l-.038 5.686zm-8.555 0h-1.893v-7.481h6.624v7.481h-1.892V48.18h-2.839v5.686zm-11.054-7.481h1.931l1.968 4.676 2.196-4.676h1.93l-4.732 10.25h-1.93l1.552-3.292-2.915-6.958zm-4.694 1.534c-.568 0-1.098.187-1.476.598-.417.412-.606 1.01-.606 1.571-.038.599.189 1.16.606 1.609.378.411.908.636 1.476.598.568 0 1.098-.224 1.476-.636.417-.449.606-1.01.606-1.608a2.126 2.126 0 00-.568-1.571c-.416-.374-.946-.599-1.514-.561zm-1.969-1.534v.823c.341-.337.72-.561 1.136-.748.417-.15.833-.262 1.287-.262a3.4 3.4 0 012.536 1.122c.72.786 1.098 1.796 1.023 2.843a3.84 3.84 0 01-1.06 2.806 3.403 3.403 0 01-2.537 1.122c-.416 0-.832-.075-1.211-.225a4.595 4.595 0 01-1.136-.748v3.554h-1.892V46.384h1.854zm-8.328-2.656h5.111v1.908h-3.142v8.23h-1.931V43.727h-.038z" fill="#44A1D1"/></g><defs><clipPath id="clip0_163_592"><path fill="#fff" d="M0 0h288v120H0z"/></clipPath></defs></svg>