<svg width="288" height="120" fill="none" xmlns="http://www.w3.org/2000/svg"><g clip-path="url(#clip0_460_1752)"><path fill-rule="evenodd" clip-rule="evenodd" d="M58.258 33.516c8.896.038 25.06 5.387 13.212 27.756a28.234 28.234 0 01-2.84 10.474l-.226.449c-4.24 8.154-12.152 13.765-21.313 15.187-8.669 4.19-18.322 4.825-26.422-.262-5.262-3.33-7.344-9.127-7.571-16.758-9.502 32.244 32.328 34.039 54.284 10.212 19.381-21.023 25.06-54.277-9.124-47.058zM35.622 25.175c19.04-7.556 34.902-9.577 47.735 2.244L73.704 0 35.622 25.175z" fill="#3A2E94"/><path fill-rule="evenodd" clip-rule="evenodd" d="M67.723 71.297l-.227.449c-4.618 8.865-13.704 14.588-23.773 14.962a24.56 24.56 0 01-2.347 0l-.151-.037h-.152a28.523 28.523 0 01-10.107-2.544l-.114-.075c-.038 0-.075-.037-.113-.037a26.897 26.897 0 01-6.89-4.676c-.568-.486-1.06-1.01-1.59-1.57l-.113-.113-.114-.112a28.04 28.04 0 01-3.71-5.237c-.113-.187-.189-.374-.302-.561-.871-1.721-1.59-3.517-2.082-5.35-.038-.074-.038-.15-.038-.224-.038-.075-.038-.112-.076-.187-3.71-14.738 5.3-29.626 20.214-33.33.379-.074.758-.186 1.136-.261h.151c.038 0 .114-.037.152-.037a28.269 28.269 0 019.388-.225c.038 0 .076 0 .113.038h.114c2.801.411 5.489 1.271 8.025 2.506l.114.075.113.037c2.347 1.16 4.467 2.656 6.398 4.414l.454.412.076.074c.038.038.076.038.076.075 8.441 8.304 10.599 20.985 5.375 31.534zM41.225 87.68h-.152c-3.634-.225-7.192-1.085-10.486-2.619l-.151-.075-.151-.074a28.881 28.881 0 01-7.155-4.826 22.307 22.307 0 01-1.628-1.646l-.113-.112-.114-.112a28.723 28.723 0 01-3.823-5.424c-.114-.187-.228-.374-.303-.599a28.394 28.394 0 01-2.158-5.573c-.038-.075-.038-.15-.038-.224-.038-.075-.038-.15-.075-.188-3.9-15.224 5.45-30.71 20.895-34.526.379-.112.795-.187 1.174-.261.038 0 .113 0 .151-.038l.152-.037c3.217-.599 6.51-.711 9.728-.225l.152.038h.113a29.546 29.546 0 018.328 2.618l.114.075.076.037c2.422 1.197 4.656 2.768 6.624 4.564l.455.449.075.112.076.075c8.745 8.566 11.016 21.695 5.603 32.656l-.227.449c-4.77 9.164-14.196 15.112-24.644 15.486-.795.037-1.59.037-2.423 0h-.075z" fill="#1B1B1B"/><path d="M17.111 67.78a25.592 25.592 0 01-.53-1.57l-.113-.487c.151.636.378 1.272.605 1.908l.038.15zM17.488 68.64l.19.525c-.19-.375-.34-.749-.492-1.123l-.038-.15c.114.225.227.487.34.749zM66.625 71.297c-.416.598-.87 1.197-1.363 1.72l.076-.224c.568-.599 1.06-1.272 1.514-1.945-.076.187-.151.3-.227.449zM18.02 48.33l.226-.45c-.416.823-.719 1.684-.946 2.581-.076.15-.114.337-.152.487.19-.898.493-1.796.871-2.619zM33.615 76.01l-.075.224a34.222 34.222 0 01-9.502-6.433l.076-.225a35.364 35.364 0 009.501 6.434zM18.095 60.86a25.204 25.204 0 005.792 8.492l-.076.224a25.578 25.578 0 01-5.791-8.491l.075-.225zM45.729 79.19l-.076.224a37.114 37.114 0 01-5.035-.786 35.698 35.698 0 01-6.738-2.281l.076-.225c2.158.973 4.43 1.72 6.738 2.282 1.666.412 3.331.673 5.035.785zM65.073 73.204c-2.196 2.282-4.96 3.966-7.988 4.938l.076-.224a19.478 19.478 0 007.987-4.938l-.075.224zM56.896 78.03l-.075.224a28.58 28.58 0 01-10.827 1.197l.076-.224a28.58 28.58 0 0010.826-1.197zM68.442 67.556l-.152.486-.038.075.038-.187c.076-.112.114-.262.152-.374zM18.018 60.599l-.113.224c-.985-2.506-1.4-5.2-1.136-7.893.038-.15.076-.337.114-.486v.075a17.374 17.374 0 001.135 8.08zM65.527 64.638a17.388 17.388 0 01-7.117 4.414v-.299a17.175 17.175 0 007.079-4.376l.038.261zM69.046 57.344a12.864 12.864 0 01-3.369 7.145l-.038-.262c1.817-1.983 2.99-4.452 3.331-7.07l.076.187zM69.086 57.12l-.076-.225c.114-.86.114-1.72.038-2.58.038.149.076.336.076.523.076.748.038 1.496-.038 2.282zM23.735 53.603a22.077 22.077 0 005.148 7.557l-.19.224c-2.233-2.17-4.012-4.75-5.186-7.593l.227-.188zM58.145 68.865v.3a25.525 25.525 0 01-9.653 1.084l.038-.299a26.91 26.91 0 009.615-1.085zM67.987 49.601l.075.15c.114.299.227.598.34.935l-.075-.15c-.114-.3-.227-.598-.34-.935zM30.89 35.274l.53-.224c-.644.3-1.25.598-1.856.972-.151.075-.34.188-.492.3a15.088 15.088 0 011.817-1.048zM48.265 69.913l-.076.299c-1.514-.112-3.028-.374-4.505-.71a33.427 33.427 0 01-6.018-2.02l.113-.263c1.93.86 3.937 1.534 5.981 2.02 1.514.3 2.99.524 4.505.674zM23.66 53.38l-.19.186a15.181 15.181 0 01-.984-7.22c.038-.373.113-.71.19-1.084l.226-.15c-.076.337-.113.711-.151 1.048-.34 2.468 0 4.937.908 7.22zM68.403 50.76l.076.188c.113.411.227.785.34 1.197-.038-.187-.113-.375-.151-.524a7.501 7.501 0 01-.265-.86zM37.514 67.07l-.113.262a29.722 29.722 0 01-8.48-5.76l.19-.225c2.422 2.356 5.3 4.301 8.403 5.723zM67.988 49.601l-.152-.374c.076.15.114.262.152.374zM22.901 44.925l-.227.15a13.428 13.428 0 013.861-6.808l.076-.038.151-.074c-1.968 1.795-3.293 4.152-3.861 6.77zM26.916 37.967l.037-.037-.037.037zM34.638 36.696c1.514-1.347 3.293-2.32 5.262-2.806l.15.075c-1.93.524-3.709 1.459-5.185 2.768l-.227-.037zM64.316 50.05l-.19-.187c.152-1.422 0-2.88-.416-4.264l.19.112c.454 1.421.568 2.88.416 4.339zM54.663 35.798l.038-.038a21.708 21.708 0 015.715 4.227l-.15-.037a19.768 19.768 0 00-5.603-4.152zM32.062 41.521l-.303.038a9.404 9.404 0 012.726-4.788h.265a9.12 9.12 0 00-2.688 4.75zM32.592 47.431l-.264.15a10.456 10.456 0 01-.682-5.05c.038-.262.076-.486.114-.748l.302-.075c-.037.262-.075.486-.113.748-.227 1.684.038 3.404.643 4.975zM60.567 40.137a15.416 15.416 0 013.293 5.424l-.19-.112a14.922 14.922 0 00-3.217-5.35l.114.038zM40.24 33.89l-.15-.075a18.803 18.803 0 016.927-.411l.075.075c-2.309-.3-4.618-.15-6.851.411zM61.856 55.324a12.62 12.62 0 01-4.997 3.105l-.076-.3a12.184 12.184 0 004.921-3.03l.152.225zM49.703 58.915l-.038.3c-1.06-.075-2.12-.262-3.18-.487a24.522 24.522 0 01-4.24-1.421l.152-.3c1.325.599 2.726 1.085 4.164 1.385 1.06.261 2.12.411 3.142.523zM56.592 58.167l.076.3a18.102 18.102 0 01-6.776.748l.038-.3a17.513 17.513 0 006.662-.748zM47.28 33.479l-.075-.075c.719.075 1.476.224 2.195.374 1.78.412 3.483 1.01 5.11 1.833l-.037.037c-1.59-.785-3.294-1.421-5.035-1.795-.72-.15-1.439-.262-2.158-.374zM42.246 56.933l-.151.299a21.346 21.346 0 01-5.944-4.04l.227-.224a20.214 20.214 0 005.868 3.965zM64.315 50.2c-.265 1.87-1.06 3.628-2.347 5.012l-.152-.262c1.25-1.384 2.082-3.105 2.31-4.938l.189.188zM32.67 47.581a16.124 16.124 0 003.557 5.237l-.227.224a16.066 16.066 0 01-3.634-5.311l.303-.15zM51.785 39.165l.114-.15c.832.411 1.59.973 2.233 1.646l-.227.075a9.405 9.405 0 00-2.12-1.571zM55.607 44.589l-.302-.113c.075-.523 0-1.084-.151-1.608l.264.037c.19.524.265 1.122.19 1.684zM55.609 44.663a3.451 3.451 0 01-.909 1.946l-.227-.225c.492-.524.795-1.16.87-1.87l.266.15zM54.662 46.646a4.53 4.53 0 01-1.93 1.197l-.152-.262c.72-.224 1.325-.636 1.855-1.16l.227.225zM43.496 43.616a5.908 5.908 0 001.325 1.983l-.227.187c-.606-.599-1.098-1.31-1.401-2.058l.303-.112zM44.064 39.39a4.695 4.695 0 012.044-1.086l.19.187c-.72.187-1.401.561-1.97 1.048l-.264-.15zM43.457 43.541l-.303.075a3.956 3.956 0 01-.265-1.983l.038-.299.34.038-.037.261c-.076.674 0 1.31.227 1.908zM46.334 38.454l-.151-.187c.87-.225 1.779-.3 2.687-.15l.038.187c-.833-.112-1.703-.037-2.574.15zM54.133 40.736a5.58 5.58 0 011.287 2.132l-.265-.038a6.138 6.138 0 00-1.212-2.02l.19-.074zM43.267 41.334l-.34-.037c.15-.711.53-1.384 1.06-1.87l.264.112c-.454.486-.833 1.122-.984 1.795zM48.985 38.304l-.038-.187c.303.038.568.075.87.15.682.15 1.363.411 2.007.71l-.114.15a8.78 8.78 0 00-1.893-.673 5.474 5.474 0 00-.832-.15zM47.091 47.132l-.113.262c-.871-.374-1.628-.935-2.31-1.571l.228-.187c.643.636 1.4 1.122 2.195 1.496zM49.893 47.843v.3c-.416-.038-.833-.113-1.25-.188-.567-.15-1.097-.3-1.627-.561l.114-.262a7.582 7.582 0 001.552.524c.416.112.832.187 1.211.187zM52.504 47.581l.151.3a7.06 7.06 0 01-2.65.299v-.3c.833.038 1.666-.037 2.499-.299z" fill="#1B1B1B"/><path d="M16.958 67.032a26.208 26.208 0 01-.114-15.074v.037a13.86 13.86 0 00-.643 2.132l.075-.449a11.6 11.6 0 01.606-1.945l.076-.224c.075-.187.113-.412.189-.599s.114-.336.151-.486a26.964 26.964 0 017.874-11.409c-.454.3-.87.673-1.287 1.047l.303-.261c.379-.375.795-.711 1.25-1.01 1.135-.936 2.308-1.796 3.595-2.544.152-.112.341-.187.493-.3a26.281 26.281 0 016.132-2.468l-.303.075.152-.038.151-.037c.114-.038.227-.038.34-.075a27.366 27.366 0 015.793-.823c4.58-.15 9.123.823 13.21 2.88l.228.113a26.376 26.376 0 017.079 5.274c.114.112.227.187.34.3l.19.224a2.44 2.44 0 00-.34-.3A26.487 26.487 0 0168.1 50.05c.075.15.151.337.227.486l.076.15c.037.15.113.299.151.411l.114.337a2.14 2.14 0 00-.19-.524l-.075-.187c-.038-.15-.114-.262-.152-.411.151.411.265.823.416 1.234.038.187.114.374.152.524.568 2.02.87 4.114.946 6.21.038.897.038 1.795-.037 2.655 0 .412-.038.823-.076 1.197l-.038.449c.038-.411.076-.786.076-1.197a26.713 26.713 0 01-1.363 6.434l-.038.187c-4.959 13.915-20.366 21.21-34.41 16.31a27.313 27.313 0 01-10.22-6.36l.075.075-.19-.187-.113-.112a27.13 27.13 0 01-5.716-8.679l-.19-.523a22.702 22.702 0 01-.416-1.197c.038.15.076.299.076.449l.038.15c.075.261.151.56.265.822l-.114-.337c-.076-.224-.151-.486-.227-.71l-.038-.187c-.113-.075-.151-.262-.151-.487zm1.968 4.265c.076.187.19.374.303.523a27.457 27.457 0 003.558 5.013 3.286 3.286 0 01-.265-1.047v-.15c-.189-1.459.19-3.33 1.098-5.648l.19-.487.075-.224a41.804 41.804 0 014.808-7.968l.189-.224c2.158-2.88 4.543-5.574 7.117-8.117l.227-.225c2.612-2.544 5.413-4.938 8.366-7.07l.227-.187a53.543 53.543 0 014.618-2.955c-1.552.935-3.104 1.908-4.58 2.993l-.227.187a74.848 74.848 0 00-8.29 7.144l-.228.225a69.93 69.93 0 00-7.079 8.192l-.189.224a41.912 41.912 0 00-4.77 8.005l-.075.225c-.076.15-.152.336-.19.486-.946 2.32-1.287 4.19-1.135 5.61v.15c.038.375.151.749.303 1.085.492.524.984 1.048 1.514 1.534a25.97 25.97 0 006.662 4.489c.038-.412.152-.786.265-1.197l.038-.112c.34-1.085.947-2.806 1.893-5.125.076-.15.114-.337.19-.486l.075-.225a393.322 393.322 0 013.748-8.678l.113-.262c1.439-3.18 2.99-6.546 4.58-9.838l.152-.3c1.59-3.328 3.218-6.583 4.732-9.575l.113-.262c.833-1.609 1.59-3.105 2.347-4.489a523.86 523.86 0 00-2.27 4.526l-.114.262a489.146 489.146 0 00-4.619 9.614l-.151.299a519.258 519.258 0 00-4.505 9.875l-.114.262c-1.4 3.18-2.687 6.135-3.71 8.678l-.075.225c-.076.15-.114.337-.19.486a102.661 102.661 0 00-1.93 5.087l-.038.113a4.236 4.236 0 00-.265 1.197 26.611 26.611 0 009.729 2.431c.53-.15.984-.449 1.363-.823l.076-.075c.946-.935 1.93-2.543 2.839-4.863l.189-.486.076-.224a56.721 56.721 0 002.46-9.015l.076-.3c.681-3.516 1.136-7.107 1.438-10.66l.038-.3c.265-3.59.34-7.182.227-10.773v-.187a55.153 55.153 0 00-.454-5.237c.227 1.646.416 3.404.53 5.237v.3c.19 3.59.151 7.182-.076 10.773l-.038.299a92.783 92.783 0 01-1.324 10.698l-.038.3c-.568 3.067-1.363 6.097-2.423 9.014l-.076.225c-.075.15-.113.336-.189.486-.946 2.32-1.93 3.928-2.877 4.863l-.076.075c-.378.374-.87.673-1.362.823.757.037 1.476.037 2.233 0 2.99-.113 5.943-.711 8.745-1.758l.265-.15.15-.075c1.515-1.01 2.802-2.656 3.748-4.938.076-.15.114-.336.19-.486l.075-.224c.909-2.581 1.325-5.611 1.288-8.903v-.3c-.076-3.516-.606-6.994-1.477-10.36l-.076-.3a50.793 50.793 0 00-3.974-10.287l-.152-.3a44.853 44.853 0 00-3.028-4.974c1.136 1.57 2.196 3.217 3.104 4.937l.152.262a50.008 50.008 0 014.088 10.25l.075.299a45.42 45.42 0 011.553 10.361v.3c.037 3.291-.341 6.322-1.25 8.903l-.075.224c-.076.15-.114.337-.19.486-.946 2.32-2.233 3.965-3.747 4.938l-.152.075-.189.112.757-.3c.19-.074.379-.149.568-.261a26.324 26.324 0 008.252-5.948c.644-.71 1.287-1.421 1.855-2.207.265-.449.492-.935.682-1.384.075-.15.113-.337.189-.486l.076-.225c.87-2.543.946-5.386.416-8.341l-.038-.262c-.681-3.217-1.93-6.247-3.634-9.052l-.151-.262c-1.931-3.142-4.316-5.948-7.041-8.454l-.227-.225a44.55 44.55 0 00-4.96-3.815 43.3 43.3 0 014.997 3.74l.227.225c2.764 2.431 5.149 5.274 7.117 8.38l.152.261a28.955 28.955 0 013.71 9.015l.037.262c.568 2.955.492 5.798-.378 8.341l-.076.225c-.076.15-.114.336-.19.486-.188.412-.378.823-.605 1.234a24.785 24.785 0 002.12-3.44l.227-.45a25.891 25.891 0 002.688-11.52 11.676 11.676 0 00-.492-1.983l-.076-.225a17.394 17.394 0 00-4.694-6.92l-.19-.187c-2.498-2.282-5.375-4.077-8.517-5.387l-.303-.112a39.756 39.756 0 00-5.867-1.908c11.13 2.581 18.852 9.202 20.063 16.272v-.56c-.038-1.16-.19-2.357-.378-3.517-.038-.15-.038-.337-.076-.524-.34-1.833-.909-3.59-1.628-5.312a11.434 11.434 0 00-3.558-3.291l-.19-.112c-2.195-1.31-4.997-2.245-8.252-2.694l-.265-.037a41.506 41.506 0 00-5.716-.262c1.893-.075 3.785-.037 5.678.187l.265.037c3.256.412 6.057 1.31 8.215 2.619l.189.112a11.705 11.705 0 013.483 3.18 26.467 26.467 0 00-5.717-8.23c-.34-.15-.68-.299-1.06-.374l-.15-.037c-1.59-.337-3.748-.15-6.285.636l-.227.075c-1.552.486-3.028 1.122-4.467 1.832a38.217 38.217 0 014.43-1.87l.226-.075c2.499-.823 4.619-1.047 6.209-.71l.151.037c.34.075.681.187 1.022.337-.151-.15-.303-.262-.416-.412-1.855-1.683-3.9-3.142-6.17-4.264l-.114.075-.038.037c-.606.411-1.552 1.496-2.801 3.254l-.114.15c-.681.973-1.438 2.095-2.31 3.441.834-1.346 1.59-2.506 2.234-3.478l.114-.15c1.211-1.758 2.12-2.88 2.688-3.292l.038-.037.113-.075a25.365 25.365 0 00-7.722-2.394c.113.075.227.187.303.262l.075.075c.72.822 1.287 2.356 1.666 4.638l.038.187c.227 1.422.378 2.88.454 4.302-.114-1.46-.265-2.88-.53-4.302l-.038-.187c-.454-2.282-1.06-3.816-1.817-4.638l-.076-.075c-.113-.112-.227-.187-.34-.3a26.272 26.272 0 00-9.048.225c.833.037 1.666.224 2.46.486l.152.075c1.931.748 3.975 2.207 5.944 4.377l.151.187c1.136 1.309 2.196 2.693 3.104 4.152a33.653 33.653 0 00-3.18-4.152l-.189-.187c-2.006-2.17-4.088-3.629-6.057-4.377l-.151-.075a8.46 8.46 0 00-2.537-.486 26.746 26.746 0 00-10.41 4.564l-.075.037h.038a15.206 15.206 0 017.722-1.272l.265.038a26.333 26.333 0 019.199 2.693l.265.112a37.07 37.07 0 015.11 3.105c-1.628-1.16-3.369-2.17-5.186-3.067l-.265-.113c-2.915-1.421-6.019-2.319-9.275-2.618h-.264c-2.915-.187-5.565.262-7.76 1.309l-.152.075-.076.037a26.53 26.53 0 00-8.858 11.82 15.506 15.506 0 014.997-5.012l.227-.15a26.1 26.1 0 018.896-3.329l.303-.037c3.596-.598 7.268-.71 10.902-.262l.34.038c2.083.261 4.165.71 6.171 1.271a43.919 43.919 0 00-6.17-1.234l-.34-.037a38.035 38.035 0 00-10.903.336l-.303.075a25.49 25.49 0 00-8.896 3.404l-.227.15a15.124 15.124 0 00-5.11 5.237c-.228.636-.417 1.271-.606 1.907-.038.15-.076.337-.114.487-1.06 4.226-1.06 8.64.038 12.83 0-1.534.303-3.03.87-4.451.077-.15.114-.337.19-.487l.114-.224c1.135-2.469 3.028-4.863 5.413-7.033l.19-.187a39.886 39.886 0 018.668-5.835l.265-.15a48.505 48.505 0 0110.524-3.815l.302-.075a46.231 46.231 0 015.981-.935 44.727 44.727 0 00-5.943.972l-.303.075a49.999 49.999 0 00-10.523 3.89l-.265.15a40.738 40.738 0 00-8.631 5.873l-.19.187c-2.384 2.207-4.277 4.601-5.413 7.07l-.075.224a2.58 2.58 0 00-.19.487 11.313 11.313 0 00-.87 4.6c.454 1.796 1.135 3.517 1.968 5.163z" fill="#1B1B1B"/><path fill-rule="evenodd" clip-rule="evenodd" d="M36.152 97.93c-8.631-.71-17.565-.224-22.713-8.903-20.026-33.59 70.675-84.276 70.22-40.137l.303 2.282c3.142-7.63 1.969-18.067-2.385-22.668-5.148-5.462-11.848-7.78-22.107-7.108-18.852 1.87-30.89 6.659-41.45 16.796C6.435 49.377-.266 62.17 0 78.741c.265 14.177 11.092 20.573 23.395 20.61 4.39 0 10.069-.635 12.757-1.42z" fill="#44A1D1"/><path fill-rule="evenodd" clip-rule="evenodd" d="M50.008 94.825c-19.042 7.557-34.903 9.576-47.736-2.244l9.616 27.456 38.12-25.212z" fill="#44A1D1"/><path d="M272.63 66.616l2.158-2.768-2.158-2.768v-1.422h2.196l2.877 3.48v1.42L274.864 68h-2.234v-1.384zm3.256 2.32l4.126-5.088-4.126-5.05v-1.421h2.195l4.846 5.76v1.422l-4.808 5.798h-2.233v-1.422zm-12.228 0h3.559v-2.881h-3.559v2.88zm-1.173 2.88c-.189 0-.341-.038-.492-.075a.6.6 0 01-.379-.3c-.113-.112-.189-.299-.227-.448a3.224 3.224 0 01-.076-.599v-5.798c0-.224.038-.411.114-.599.038-.15.151-.336.265-.448.114-.113.265-.225.416-.262.152-.038.265-.075.417-.075l4.694-.037v-3.068h-3.559v1.496h-2.384v-2.917c0-.112 0-.262.037-.374 0-.112.038-.187.076-.3 0-.074.038-.112.076-.187.038-.074.076-.112.113-.187l.114-.112c.038-.037.076-.037.114-.075.075 0 .113 0 .151-.037h.114l6.624-.037c.038.037.076.037.114.037.038.037.113.037.151.037.076.038.114.075.189.075.076.038.114.112.19.15.113.075.151.187.189.3 0 .111.038.26.038.373v10.549h1.211v2.88l-8.29.037zm-19.003-14.44h14.082c.151 0 .341.038.492.113.151.037.303.15.379.3.113.149.151.298.189.485.038.187.038.374.038.561v10.1h1.325v2.88h-4.77v-2.88h1.135v-8.64h-3.482v8.64h1.287v2.88h-4.846v-2.88h1.174v-8.64h-3.521v8.64h1.288v2.88h-4.808v-2.88h1.173v-8.64h-1.173l.038-2.918zm-7.344 11.56h3.634v-8.642h-3.634v8.641zm4.694-11.56h.265c.038.038.114.038.151.038.038 0 .076 0 .114.037.114.038.189.075.303.113.076.037.151.112.227.187a.282.282 0 01.076.15c0 .074.037.186.037.224 0 .075 0 .112.038.187v12.643c0 .075-.038.112-.038.187 0 .038-.037.112-.037.15 0 .075-.038.112-.076.15-.076.187-.265.299-.454.336-.19.037-.417.037-.606.037h-4.618v2.88h1.135v2.919h-4.694v-2.918h1.212V60.294h-1.212v-2.917h8.177zm-11.773 11.522v-8.641h-3.483v8.64h3.483zm-5.565 2.506a.854.854 0 01-.227-.449c-.038-.187-.038-.411-.038-.598V58.798c0-.187.038-.337.076-.524s.114-.336.227-.486c.114-.112.265-.187.417-.262a.768.768 0 01.416-.112l5.981-.037c.189 0 .341.037.53.112.152.037.303.112.379.262.113.15.227.299.265.486.038.187.075.411.075.598v11.522c0 .224-.037.411-.075.636a.694.694 0 01-.265.448.6.6 0 01-.379.3 2.259 2.259 0 01-.53.075h-5.981a1.92 1.92 0 01-.454-.075c-.152-.075-.303-.15-.417-.3v-.037zm-2.801.374h-4.164v2.806h1.212V77.5h-4.732v-2.917h1.135v-2.806h-4.164l-.113-.037c-.114-.038-.227-.038-.341-.038a.584.584 0 01-.416-.299c-.114-.112-.19-.3-.228-.486-.075-.187-.075-.412-.075-.599V58.686c0-.112 0-.262.038-.374.037-.112.037-.187.075-.3 0-.074.038-.15.114-.187l.113-.187c.114-.112.303-.187.455-.224.151-.037.34-.037.492-.037h4.088v-3.143h-1.136v-2.917h4.732v2.917h-1.249v3.105h4.164c.189 0 .417.038.606.075a.65.65 0 01.454.374c.076.15.152.3.152.486v12.569c-.038.075-.038.112-.038.187s-.038.15-.038.187c0 .075-.038.112-.076.15-.076.074-.113.15-.189.187a1.352 1.352 0 01-.341.15c-.076.037-.151.037-.227.037-.114.075-.227.075-.303.037zm-4.126-2.955h2.953v-8.566h-2.953v8.566zm-2.461.075v-8.753h-2.952v8.753h2.952zm-13.93-2.132l3.634-9.427h3.596l-.038 2.918h-1.135v8.64h1.173v2.881h-4.732v-2.88h1.249v-6.135l-3.52 9.015-4.164-9.015v6.135h1.136v2.88h-4.732v-2.88h1.249v-8.641h-1.287v-2.918h3.483l4.088 9.427zm-11.357 2.132v-8.604h-3.482v8.641l3.482-.037zm-5.564 2.506a.84.84 0 01-.227-.449c-.038-.187-.038-.411-.038-.598V58.798c0-.187.038-.337.075-.524a1.15 1.15 0 01.228-.486c.113-.112.265-.224.416-.3a.77.77 0 01.416-.111l5.981-.038c.19 0 .341.038.53.112.152.038.303.113.379.262.114.15.227.3.265.486.038.188.076.412.076.599v11.521c0 .225 0 .412-.076.636a.694.694 0 01-.265.449.6.6 0 01-.379.3c-.151.037-.34.074-.53.074h-5.981c-.151 0-.302-.037-.454-.075a.792.792 0 01-.416-.299zm-12.19-16.945v5.686l4.77-5.649h-1.249v-2.88h5.83v2.88h-1.552l-5.224 6.397 6.511 8.005h1.552v2.88h-5.83v-2.88h1.022l-5.867-7.332v7.332h1.249v2.88h-4.732v-2.88h1.211v-14.44h-1.211v-2.88h4.694v2.88h-1.174zM158.346 67.4v4.377h-7.117a1.53 1.53 0 01-.567-.112.907.907 0 01-.379-.374c-.038-.038-.038-.112-.076-.15a.287.287 0 01-.075-.15c-.038-.112-.076-.187-.076-.299v-.187V58.873c0-.225.038-.412.076-.599a1.3 1.3 0 01.227-.523c.113-.113.265-.187.416-.262.152-.038.303-.075.492-.075l7.155-.037v4.376h-2.461v-1.608h-3.558v8.753h3.558v-1.496h2.385zm-18.397 2.956V65.98h-1.439v5.835h-3.52v-2.88h1.211v-8.529h-1.211v-2.88h3.558v5.798h1.363V58.91c0-.187.038-.336.076-.523.037-.188.151-.337.265-.487.113-.112.227-.224.378-.299.114-.075.265-.075.417-.075l6.018-.037c.19 0 .341.037.493.112.151.037.302.112.378.262.152.15.227.3.265.486.038.187.076.412.038.599v11.371c0 .225 0 .45-.076.674a.888.888 0 01-.265.486.598.598 0 01-.378.3 2.248 2.248 0 01-.492.074h-5.981c-.152 0-.303-.037-.455-.075-.151-.075-.303-.15-.416-.3v-.037a.847.847 0 01-.227-.448c.038-.225 0-.412 0-.636zm5.867-1.46V60.37h-3.482v8.529h3.482zm-19.344 2.881H122.8v-2.88h1.325v-10.1c0-.187.038-.374.076-.561.038-.187.114-.337.227-.486a.6.6 0 01.379-.3c.151-.037.34-.112.53-.112h8.441v2.918h-1.135v8.64h1.135v2.881h-4.807v-2.88h1.325v-8.604h-3.824v11.484zm-7.343-2.88v-8.604h-3.483v8.641l3.483-.037zm-5.565 2.506a.847.847 0 01-.227-.449c-.038-.187-.038-.411-.038-.598V58.798c0-.187.038-.337.076-.524.037-.187.113-.336.227-.486.113-.112.265-.224.416-.3a.772.772 0 01.417-.111l5.981-.038c.189 0 .34.075.53.112.151.038.302.113.378.262.114.15.227.3.265.486.038.188.076.412.076.599v11.521c0 .225-.038.412-.076.636a.69.69 0 01-.265.449.601.601 0 01-.378.3 2.266 2.266 0 01-.53.074h-5.981c-.152 0-.303-.037-.455-.075-.151-.075-.303-.15-.416-.299zm-3.407-19.376l.113.224c0 .075.038.187.038.262 0 .075.038.15.038.224v16.16h1.136v2.88h-4.656v-2.88h1.211V54.496h-4.808v14.44h1.212v2.88h-4.694v-2.88h1.135v-14.44h-1.135v-2.88h9.653l.454.112c.152.075.303.187.379.337l-.076-.037zm-12.87 14.588v1.421h-2.234l-2.801-3.441v-1.421l2.877-3.48h2.195v1.422l-2.12 2.768 2.082 2.731zm-3.294 2.32v1.42H91.76l-4.77-5.797v-1.422l4.845-5.76h2.196v1.421l-4.126 5.05 4.088 5.087z" fill="#3A2E94"/><path d="M240.795 36.055h1.552c.113.187.303.337.492.411.265.112.53.15.795.15.303 0 .568-.038.871-.15a.961.961 0 00.454-.411h1.552a2.14 2.14 0 01-.833 1.421 3.32 3.32 0 01-1.968.524c-.493 0-.985-.075-1.439-.224a2.432 2.432 0 01-.946-.674c-.303-.299-.455-.673-.53-1.047zm.53 10.81h-1.022v-7.481h1.855v4.414l3.899-4.414h.908v7.481h-1.855v-4.301l-3.785 4.301zm-8.593 0h-1.022v-7.481h1.854v4.414l3.9-4.414h.908v7.481h-1.855v-4.301l-3.785 4.301zm-7.685-4.788h2.839v-2.693h1.893v7.481h-1.893v-3.104h-2.839v3.104h-1.893v-7.481h1.893v2.693zm-7.722-1.16c-.568 0-1.098.225-1.477.637-.378.411-.605 1.01-.567 1.57-.038.6.189 1.16.605 1.61.379.41.909.635 1.477.635.567 0 1.097-.224 1.476-.636.416-.449.606-1.01.606-1.608a2.02 2.02 0 00-.606-1.571c-.416-.45-.946-.674-1.514-.636zm2.006-1.533h1.893v7.481h-1.893v-.785c-.341.299-.719.56-1.136.748-.378.15-.795.224-1.211.224a3.4 3.4 0 01-2.536-1.122 3.836 3.836 0 01-1.06-2.805 3.982 3.982 0 011.06-2.843 3.4 3.4 0 012.536-1.122c.454 0 .871.074 1.287.261.416.187.795.412 1.098.748v-.785h-.038zm-12.265 7.481h-1.893v-7.481h6.663v7.481h-1.893V41.18h-2.877v5.686zm-8.479-2.768l2.347-4.713h1.249l1.893 7.481h-1.855l-1.022-4.414-2.272 4.414h-.795l-2.195-4.414-1.022 4.414h-1.855l1.892-7.481h1.25l2.385 4.713zm-10.183-3.142c-.568 0-1.098.224-1.477.599-.416.411-.605.972-.605 1.57a2.13 2.13 0 00.567 1.572 1.83 1.83 0 001.477.598 2.1 2.1 0 001.476-.598c.416-.412.606-.973.606-1.571a2.069 2.069 0 00-.606-1.571 1.707 1.707 0 00-1.438-.599zm-.038-1.758c.719 0 1.4.187 2.006.524 1.249.673 2.006 1.982 2.006 3.404 0 .71-.189 1.384-.53 1.982a3.72 3.72 0 01-1.438 1.422 4.256 4.256 0 01-2.044.523c-1.06.038-2.044-.374-2.802-1.122a3.918 3.918 0 01-.037-5.573 4.035 4.035 0 012.839-1.16zm-12.19-2.469h1.969v3.516l2.763-3.516h2.347l-3.596 4.526 3.937 5.611h-2.271l-3.18-4.526v4.526h-1.969V36.728zm-10.031 4.19c-.568 0-1.098.224-1.476.636-.417.411-.606 1.01-.568 1.57-.038.6.189 1.16.605 1.61.379.41.909.635 1.477.635a2.1 2.1 0 001.476-.599c.417-.448.606-1.01.606-1.608a2.014 2.014 0 00-.606-1.571c-.416-.486-.946-.71-1.514-.673zm2.006-1.534h1.893v7.481h-1.893v-.785c-.34.299-.719.56-1.135.748-.379.15-.795.224-1.212.224a3.4 3.4 0 01-2.536-1.122 3.836 3.836 0 01-1.06-2.805 4.119 4.119 0 011.022-2.843 3.402 3.402 0 012.536-1.122c.455 0 .871.074 1.287.261.417.187.795.412 1.098.748v-.785zm-12.303 7.481h-1.892v-7.481h6.662v7.481h-1.893V41.18h-2.839l-.038 5.686zm-8.555 0H145.4v-7.481h6.625v7.481h-1.893V41.18h-2.839v5.686zm-11.053-7.481h1.93l1.969 4.676 2.195-4.676h1.931l-4.732 10.25h-1.931l1.552-3.292-2.914-6.958zm-4.694 1.534c-.568 0-1.098.187-1.477.598-.416.412-.605 1.01-.605 1.571-.038.599.189 1.16.605 1.609a1.83 1.83 0 001.477.598c.567 0 1.097-.224 1.476-.636.416-.449.606-1.01.606-1.608a2.134 2.134 0 00-.568-1.571c-.417-.374-.947-.599-1.514-.561zm-1.969-1.534v.823c.341-.337.719-.561 1.136-.748.416-.15.833-.262 1.287-.262a3.4 3.4 0 012.536 1.122c.719.786 1.098 1.796 1.022 2.843a3.836 3.836 0 01-1.06 2.806 3.4 3.4 0 01-2.536 1.122c-.416 0-.833-.075-1.211-.225a4.577 4.577 0 01-1.136-.748v3.554h-1.893V39.384h1.855zm-8.328-2.656h5.11v1.908h-3.142v8.23h-1.93V36.727h-.038z" fill="#44A1D1"/><path d="M258.23 84.435H260v6.956h-1.77v-6.956zm-4.92 5.635h.531c.318 0 .566-.035.708-.07a.92.92 0 00.389-.243c.106-.14.177-.279.177-.453 0-.591-.354-.904-1.062-.904h-.743v1.67zm0-3.096h.531c.743 0 1.309.07 1.734.174.39.104.744.348 1.027.696.283.347.425.8.425 1.356 0 .522-.142.974-.39 1.322-.248.348-.566.591-.956.695-.389.105-.92.174-1.628.174h-2.513v-6.956h1.77v2.539zm-7.894 1.843l2.195-4.382h1.168l1.77 6.956h-1.735l-.956-4.104-2.123 4.104h-.744l-2.053-4.104-.956 4.104h-1.734l1.77-6.956h1.168l2.23 4.382zm-7.575-1.773c-.106-.383-.354-.696-.708-.94-.354-.243-.744-.347-1.204-.347-.495 0-.92.139-1.31.417-.247.174-.46.452-.637.87h3.859zm1.77 1.356h-5.699c.07.487.318.904.672 1.183.354.278.814.452 1.381.452.672 0 1.239-.244 1.699-.696l1.486.696c-.389.522-.814.904-1.345 1.148a4.331 4.331 0 01-1.84.382c-1.098 0-2.018-.348-2.726-1.043-.708-.696-1.062-1.566-1.062-2.574 0-1.078.354-1.948 1.062-2.644.708-.695 1.557-1.043 2.619-1.043 1.133 0 2.018.348 2.726 1.043.708.696 1.062 1.635 1.062 2.783l-.035.313zm-14.868-3.965h6.62v1.67h-2.372v5.286h-1.77v-5.287h-2.478v-1.67zm-.991 1.426l-1.487.8c-.283-.278-.566-.487-.814-.591a2.738 2.738 0 00-.955-.174c-.673 0-1.204.208-1.629.591-.425.383-.602.87-.602 1.496 0 .59.213 1.078.602 1.46.39.383.921.557 1.558.557.779 0 1.416-.278 1.876-.8l1.416.94c-.779.973-1.841 1.46-3.221 1.46-1.239 0-2.231-.348-2.938-1.078-.708-.73-1.062-1.566-1.062-2.54 0-.66.177-1.286.531-1.843a3.534 3.534 0 011.451-1.322 4.462 4.462 0 012.053-.487c.708 0 1.345.14 1.911.418.496.209.956.591 1.31 1.113zm-14.017 5.53h-.956v-6.956h1.734v4.104l3.646-4.104h.85v6.956h-1.735v-4l-3.539 4zm-2.549-5.53l-1.487.8c-.283-.278-.566-.487-.814-.591a2.744 2.744 0 00-.956-.174c-.672 0-1.203.208-1.628.591-.425.383-.602.87-.602 1.496 0 .59.212 1.078.602 1.46.389.383.92.557 1.557.557.779 0 1.416-.278 1.877-.8l1.415.94c-.778.973-1.84 1.46-3.221 1.46-1.239 0-2.23-.348-2.938-1.078-.708-.73-1.062-1.566-1.062-2.54 0-.66.177-1.286.531-1.843a3.53 3.53 0 011.452-1.322 4.456 4.456 0 012.053-.487c.708 0 1.345.14 1.911.418.496.209.956.591 1.31 1.113zm-13.912 1.182c-.106-.382-.354-.695-.708-.939-.354-.243-.743-.347-1.203-.347-.496 0-.921.139-1.31.417-.248.174-.46.452-.637.87h3.858zm1.77 1.357h-5.699c.071.487.319.904.673 1.183.354.278.814.452 1.38.452.673 0 1.239-.244 1.699-.696l1.487.696c-.389.522-.814.904-1.345 1.148a4.336 4.336 0 01-1.841.382c-1.097 0-2.017-.348-2.725-1.043-.708-.696-1.062-1.566-1.062-2.574 0-1.078.354-1.948 1.062-2.644.708-.695 1.557-1.043 2.619-1.043 1.133 0 2.018.348 2.726 1.043.708.696 1.062 1.635 1.062 2.783l-.036.313zm-10.655-3.965h1.77v6.956h-1.77v-6.956zm-4.92 5.635H180c.319 0 .566-.035.708-.07a.913.913 0 00.389-.243c.107-.14.177-.279.177-.453 0-.591-.354-.904-1.062-.904h-.743v1.67zm0-3.096H180c.743 0 1.31.07 1.735.174.389.104.743.348 1.026.696.283.347.425.8.425 1.356 0 .522-.142.974-.39 1.322-.247.348-.566.591-.955.695-.39.105-.921.174-1.629.174h-2.513v-6.956h1.77v2.539zm-8-.035h2.655v-2.504h1.77v6.956h-1.77v-2.887h-2.655v2.887h-1.77v-6.956h1.77v2.504zm-6.973-1.078c-.567 0-1.027.174-1.381.556-.354.383-.566.87-.566 1.461 0 .626.177 1.113.566 1.496.354.383.85.556 1.381.556s.991-.208 1.38-.59c.389-.383.566-.87.566-1.496 0-.592-.177-1.079-.531-1.461-.389-.313-.849-.522-1.415-.522zm-1.841-1.426v.765a3.146 3.146 0 011.026-.696c.39-.139.779-.243 1.204-.243.92 0 1.699.348 2.372 1.043.637.696.955 1.566.955 2.644 0 1.043-.318 1.913-.991 2.609-.672.695-1.451 1.043-2.371 1.043-.425 0-.779-.07-1.133-.209-.354-.139-.708-.382-1.062-.695V94h-1.77v-9.53h1.77v-.035zm-5.027 2.608c-.106-.382-.354-.695-.708-.939-.354-.243-.743-.347-1.203-.347-.496 0-.921.139-1.31.417-.248.174-.46.452-.637.87h3.858zm1.77 1.357h-5.699c.071.487.319.904.673 1.183.354.278.814.452 1.38.452.673 0 1.239-.244 1.699-.696l1.487.696c-.389.522-.814.904-1.345 1.148a4.336 4.336 0 01-1.841.382c-1.097 0-2.017-.348-2.725-1.043-.708-.696-1.062-1.566-1.062-2.574 0-1.078.354-1.948 1.062-2.644.708-.695 1.557-1.043 2.619-1.043 1.133 0 2.018.348 2.726 1.043.708.696 1.062 1.635 1.062 2.783l-.036.313zm-13.31-1.46h2.655v-2.505h1.77v6.956h-1.77v-2.887h-2.655v2.887h-1.769v-6.956h1.769v2.504zm-5.026.103c-.106-.382-.354-.695-.708-.939-.354-.243-.743-.347-1.204-.347-.495 0-.92.139-1.309.417-.248.174-.46.452-.637.87h3.858zm1.77 1.357h-5.699c.071.487.318.904.672 1.183.354.278.814.452 1.381.452.672 0 1.239-.244 1.699-.696l1.487.696c-.39.522-.814.904-1.345 1.148a4.336 4.336 0 01-1.841.382c-1.098 0-2.018-.348-2.726-1.043-.708-.696-1.062-1.566-1.062-2.574 0-1.078.354-1.948 1.062-2.644.708-.695 1.558-1.043 2.62-1.043 1.132 0 2.017.348 2.725 1.043.708.696 1.062 1.635 1.062 2.783l-.035.313zm-14.266.765l-.212-.209-2.089 2.435h-2.371l3.186-3.582-3.151-3.374h2.159l2.443 2.608v-2.608h1.77v2.608l2.478-2.608h2.159l-3.186 3.374 3.221 3.582h-2.371l-2.124-2.47-.177.21v2.225h-1.77v-2.19h.035zm-9.84-2.226h2.655v-2.504h1.769v6.956h-1.769v-2.887h-2.655v2.887h-1.77v-6.956h1.77v2.504zM114.973 82v9.426h-1.805v-5.913l-3.61 5.913H108V82h1.805v6.087L113.487 82h1.486z" fill="#009EE3"/></g><defs><clipPath id="clip0_460_1752"><path fill="#fff" d="M0 0h288v120H0z"/></clipPath></defs></svg>