<svg width="71" height="80" fill="none" xmlns="http://www.w3.org/2000/svg"><g filter="url(#filter0_d_185_201)"><path fill-rule="evenodd" clip-rule="evenodd" d="M34.08 16.032l-.797.14c-3.92.691-6.509 3.6-7.414 8.332-.075.391-.136.848-.136 1.014 0 .235-.058.333-.258.437a1.813 1.813 0 00-.816.924c-.19.455-.198 2.015-.013 2.458.122.293.115.351-.094.764-.208.41-.226.555-.224 1.767.002 1.505.105 1.863.678 2.367.43.376.914.534 1.474.48l.445-.043.056 1.088c.032.603.142 1.418.25 1.832.365 1.418 1.278 2.897 2.335 3.786l.481.404V43.243l-.82.215c-1.814.476-5.638 1.781-7.012 2.394-1.032.46-2.084 1.16-2.601 1.732-.917 1.013-1.786 3.019-2.214 5.114-.233 1.142-1.47 10.442-1.397 10.514.084.083 1.142.211 1.205.145.031-.033.318-2.065.637-4.516.319-2.45.662-4.9.762-5.444.342-1.847.883-3.355 1.595-4.447.501-.768.762-.992 1.802-1.552l.727-.391V52.724l-.248.063c-.425.106-1.38 1.15-1.634 1.787-.223.56-.224.588-.256 4.758l-.031 4.196.236.236.236.236H35.38c13.981 0 14.35-.005 14.566-.18l.221-.178.027-3.597c.016-2.05-.014-3.932-.068-4.38-.16-1.319-.696-2.204-1.665-2.75l-.498-.282v-2.758c0-1.847.032-2.758.097-2.758.153 0 .836.366 1.415.759.858.581 1.516 1.647 2.098 3.399.46 1.388.56 1.955 1.267 7.269.352 2.648.656 4.83.676 4.85.038.037 1.203-.114 1.245-.162.027-.03-.828-6.582-1.172-8.987-.32-2.229-.736-3.648-1.526-5.195-.788-1.544-1.66-2.313-3.678-3.245-.983-.454-4.286-1.597-6.12-2.118l-1.618-.46v-1.395l.698-.643c1.554-1.432 2.28-3.053 2.371-5.294l.05-1.233.527.045a1.95 1.95 0 001.84-.948c.28-.46.282-.47.282-1.876 0-1.304-.017-1.444-.215-1.79-.21-.367-.212-.391-.07-.935.356-1.369.03-2.763-.732-3.13-.302-.144-.286-.103-.44-1.137-.243-1.62-.861-3.39-1.65-4.716-.546-.92-1.982-2.4-2.786-2.875-.75-.443-1.938-.9-2.83-1.09-.715-.152-3.093-.27-3.61-.178zm3.635 1.54l.867.217v3.417l-.41.38c-.487.447-.766.6-1.48.805-1.319.379-2.84.01-3.716-.902l-.307-.32.026-1.77.025-1.772.376-.083c1.434-.316 3.28-.305 4.619.029zm-6.355 2.266v1.61l.299.465c.76 1.186 2.292 1.894 4.063 1.879 1.669-.015 3.11-.708 3.877-1.865l.297-.448v-2.976l.21.11c.117.06.57.474 1.009.918 1.165 1.181 1.882 2.557 2.348 4.508.156.652.364 2.113.37 2.607.003.215.373.493.655.493.368 0 .473.215.473.97 0 .823-.043.906-.465.906-.424 0-.91.156-1.213.39-.213.164-.591.172-7.944.172-5.53 0-7.737-.029-7.783-.103-.118-.19-.834-.455-1.24-.457-.343-.002-.413-.037-.492-.243-.118-.312-.116-.84.007-1.283.088-.316.13-.352.407-.352.48 0 .635-.248.718-1.147.268-2.914 1.31-5.325 2.931-6.787.47-.424 1.258-.971 1.403-.975.039 0 .07.723.07 1.608zm-4.638 10.626c.219.22.23.286.23 1.36 0 1.005-.02 1.15-.188 1.318a.684.684 0 01-.961.024c-.14-.126-.164-.323-.164-1.345 0-1.183.003-1.2.247-1.393.325-.255.555-.245.836.036zm18.196 0c.218.218.23.288.23 1.32 0 .599-.041 1.166-.092 1.26-.236.443-.952.388-1.194-.092-.142-.28-.159-1.687-.026-2.165.153-.55.693-.711 1.082-.323zm-2.422 3.358c-.05 3.277-.07 3.41-.736 4.757a5.897 5.897 0 01-2.618 2.614c-1.22.597-1.639.672-3.745.67-2.095-.002-2.627-.091-3.739-.63-1.053-.51-2.194-1.66-2.725-2.745-.6-1.228-.664-1.693-.666-4.854l-.002-2.743H42.542l-.046 2.93zm-9.536 9.222c.602.122 1.157.144 2.788.112 1.905-.038 2.085-.057 2.767-.291.401-.138.75-.25.774-.25.024 0 .044.21.044.467 0 .467-.006.475-1.985 3.005-1.092 1.396-2.014 2.504-2.048 2.464-.035-.04-.936-1.18-2.002-2.532l-1.938-2.457v-1.034l.425.182c.233.1.762.25 1.175.334zm-.061 4.548c1.336 1.699 2.455 3.087 2.486 3.085.03-.002 1.132-1.393 2.447-3.09 1.316-1.697 2.434-3.087 2.486-3.087.051 0 .706.178 1.454.395l1.36.397.024 3.726.025 3.727H27.515v-2.556c0-1.406.028-3.088.06-3.739l.061-1.183 1.323-.38c.727-.21 1.365-.382 1.416-.383.052 0 1.188 1.389 2.524 3.088zm-6.604 2.075c0 3.933.002 3.958.204 4.174l.204.217h17.328l.23-.23.23-.23v-7.879l1.126.385 1.126.386v3.488c0 3.884-.04 3.648.656 3.882.544.183.988.552 1.227 1.02l.227.444.028 3.681.029 3.682H47.68v-1.782h-8.254v1.782h-7.598v-1.782h-8.254v1.782h-1.688v-3.548c0-3.044.022-3.611.154-4 .206-.603.752-1.14 1.301-1.279.724-.182.702-.063.702-3.937v-3.437l1.056-.38c.58-.21 1.086-.384 1.125-.389.039-.004.07 1.774.07 3.95zm4.503 12.645v.375H24.607v-.75H30.798v.375zm15.85 0v.375H40.459v-.75H46.65v.375z" fill="#3B2CAC"/></g><defs><filter id="filter0_d_185_201" x="0" y="0" width="70.761" height="80" filterUnits="userSpaceOnUse" color-interpolation-filters="sRGB"><feFlood flood-opacity="0" result="BackgroundImageFix"/><feColorMatrix in="SourceAlpha" values="0 0 0 0 0 0 0 0 0 0 0 0 0 0 0 0 0 0 127 0" result="hardAlpha"/><feOffset/><feGaussianBlur stdDeviation="8"/><feComposite in2="hardAlpha" operator="out"/><feColorMatrix values="0 0 0 0 0.769292 0 0 0 0 0.295625 0 0 0 0 0.887708 0 0 0 0.48 0"/><feBlend in2="BackgroundImageFix" result="effect1_dropShadow_185_201"/><feBlend in="SourceGraphic" in2="effect1_dropShadow_185_201" result="shape"/></filter></defs></svg>